<svg width="86" height="86" viewBox="0 0 86 86" fill="none" xmlns="http://www.w3.org/2000/svg">
<g filter="url(#filter0_d)">
<rect x="10" y="10" width="66" height="66" rx="6" fill="#35A062"/>
</g>
<g clip-path="url(#clip0)">
<path d="M60.8293 42.186H54.8036V22.9722C54.8036 22.6429 54.6052 22.346 54.301 22.22C53.9967 22.0939 53.6466 22.1637 53.4138 22.3964L51.1074 24.7027L48.8012 22.3965C48.4832 22.0786 47.9677 22.0786 47.6497 22.3965L45.3434 24.7028L43.0373 22.3965C42.7194 22.0786 42.2039 22.0786 41.8859 22.3965L39.5796 24.7028L37.2732 22.3965C36.9553 22.0786 36.4398 22.0786 36.1218 22.3965L33.8155 24.7028L31.5094 22.3965C31.1915 22.0786 30.6759 22.0786 30.3579 22.3965L28.0516 24.7028L25.7454 22.3965C25.4294 22.0805 24.9184 22.0789 24.5997 22.392C24.4323 22.5565 24.3511 22.7758 24.3567 22.9936V59.6088C24.3567 61.9431 26.2558 63.8421 28.5901 63.8421H57.4089C57.409 63.8421 57.4091 63.8421 57.4093 63.8421C57.4095 63.8421 57.4098 63.8421 57.41 63.8421C59.7443 63.8421 61.6434 61.9431 61.6434 59.6088V43C61.6434 42.5504 61.2789 42.186 60.8293 42.186ZM28.5901 62.2139C27.1535 62.2139 25.9849 61.0452 25.9849 59.6087V24.9387L27.476 26.4298C27.7939 26.7477 28.3094 26.7477 28.6274 26.4298L30.9337 24.1234L33.24 26.4298C33.5579 26.7477 34.0735 26.7477 34.3915 26.4298L36.6978 24.1234L39.0042 26.4298C39.3221 26.7477 39.8376 26.7477 40.1555 26.4298L42.4618 24.1234L44.7681 26.4298C45.0861 26.7477 45.6016 26.7477 45.9196 26.4298L48.2259 24.1234L50.5322 26.4298C50.8502 26.7477 51.3657 26.7477 51.6836 26.4298L53.1758 24.9376V43C53.1758 43.0075 53.1767 43.0147 53.177 43.0221V59.6087C53.177 60.5907 53.514 61.4949 54.0772 62.2139H28.5901ZM60.0151 59.6087C60.0151 61.0452 58.8464 62.2139 57.4099 62.2139C55.9735 62.2139 54.8048 61.0452 54.8048 59.6087V43.8142H60.0151V59.6087Z" fill="white"/>
<path d="M48.0689 35.0911H31.4011C30.9514 35.0911 30.5869 35.4556 30.5869 35.9052C30.5869 36.3549 30.9514 36.7194 31.4011 36.7194H48.0689C48.5185 36.7194 48.883 36.3549 48.883 35.9052C48.883 35.4556 48.5185 35.0911 48.0689 35.0911Z" fill="white"/>
<path d="M48.172 44.1404H35.2741C34.8245 44.1404 34.46 44.5049 34.46 44.9545C34.46 45.4042 34.8245 45.7687 35.2741 45.7687H48.172C48.6217 45.7687 48.9862 45.4042 48.9862 44.9545C48.9861 44.5049 48.6217 44.1404 48.172 44.1404Z" fill="white"/>
<path d="M31.5645 44.3789C31.4131 44.2275 31.2031 44.1404 30.9889 44.1404C30.7748 44.1404 30.5648 44.2275 30.4133 44.3789C30.2619 44.5304 30.1748 44.7404 30.1748 44.9545C30.1748 45.1686 30.2619 45.3787 30.4133 45.5301C30.5648 45.6816 30.7748 45.7687 30.9889 45.7687C31.2031 45.7687 31.4131 45.6816 31.5645 45.5301C31.716 45.3787 31.8031 45.1686 31.8031 44.9545C31.8031 44.7404 31.716 44.5304 31.5645 44.3789Z" fill="white"/>
<path d="M48.172 49.5137H35.2741C34.8245 49.5137 34.46 49.8782 34.46 50.3278C34.46 50.7775 34.8245 51.142 35.2741 51.142H48.172C48.6217 51.142 48.9862 50.7775 48.9862 50.3278C48.9861 49.8782 48.6217 49.5137 48.172 49.5137Z" fill="white"/>
<path d="M31.5645 49.7522C31.4131 49.6008 31.2031 49.5137 30.9889 49.5137C30.7748 49.5137 30.5648 49.6008 30.4133 49.7522C30.2619 49.9036 30.1748 50.1137 30.1748 50.3278C30.1748 50.5419 30.2619 50.752 30.4133 50.9034C30.5648 51.0548 30.7748 51.142 30.9889 51.142C31.2031 51.142 31.4131 51.0548 31.5645 50.9034C31.716 50.752 31.8031 50.5419 31.8031 50.3278C31.8031 50.1137 31.716 49.9036 31.5645 49.7522Z" fill="white"/>
<path d="M48.172 54.8867H35.2741C34.8245 54.8867 34.46 55.2512 34.46 55.7009C34.46 56.1505 34.8245 56.515 35.2741 56.515H48.172C48.6217 56.515 48.9862 56.1505 48.9862 55.7009C48.9862 55.2512 48.6217 54.8867 48.172 54.8867Z" fill="white"/>
<path d="M31.5645 55.1253C31.4131 54.9738 31.2031 54.8867 30.9889 54.8867C30.7748 54.8867 30.5648 54.9738 30.4133 55.1253C30.2619 55.2767 30.1748 55.4867 30.1748 55.7009C30.1748 55.915 30.2619 56.125 30.4133 56.2765C30.5648 56.4279 30.7748 56.515 30.9889 56.515C31.2031 56.515 31.4131 56.4279 31.5645 56.2765C31.716 56.125 31.8031 55.915 31.8031 55.7009C31.8031 55.4867 31.716 55.2767 31.5645 55.1253Z" fill="white"/>
</g>
<defs>
<filter id="filter0_d" x="0" y="0" width="86" height="86" filterUnits="userSpaceOnUse" color-interpolation-filters="sRGB">
<feFlood flood-opacity="0" result="BackgroundImageFix"/>
<feColorMatrix in="SourceAlpha" type="matrix" values="0 0 0 0 0 0 0 0 0 0 0 0 0 0 0 0 0 0 127 0"/>
<feOffset/>
<feGaussianBlur stdDeviation="5"/>
<feColorMatrix type="matrix" values="0 0 0 0 0 0 0 0 0 0 0 0 0 0 0 0 0 0 0.15 0"/>
<feBlend mode="normal" in2="BackgroundImageFix" result="effect1_dropShadow"/>
<feBlend mode="normal" in="SourceGraphic" in2="effect1_dropShadow" result="shape"/>
</filter>
<clipPath id="clip0">
<rect width="41.6842" height="41.6842" fill="white" transform="translate(22.1582 22.158)"/>
</clipPath>
</defs>
</svg>
