<svg width="17" height="14" viewBox="0 0 17 14" fill="none" xmlns="http://www.w3.org/2000/svg">
<path d="M10.4051 0.193015C10.1221 -0.0733388 9.67335 -0.0628386 9.40383 0.217165C9.13396 0.497169 9.14529 0.940275 9.42827 1.20698L14.8619 6.2999H0.708333C0.317333 6.2999 0 6.6135 0 6.99991C0 7.38631 0.317333 7.69992 0.708333 7.69992H14.8392L9.42827 12.7932C9.14494 13.0599 9.13396 13.503 9.40383 13.783C9.54302 13.9272 9.72967 14 9.91667 14C10.0923 14 10.268 13.9359 10.4051 13.8068L16.5849 7.98972C16.8527 7.72547 17 7.37406 17 6.99991C17 6.62575 16.8527 6.27435 16.5725 5.99819L10.4051 0.193015Z" fill="#CBAB97"/>
</svg>
