<svg width="48" height="48" viewBox="0 0 48 48" fill="none" xmlns="http://www.w3.org/2000/svg">
<path d="M44.5307 23.0626H37.5921V0.937573C37.5921 0.558448 37.3636 0.216542 37.0134 0.0714166C36.663 -0.0738022 36.2597 0.00663531 35.9917 0.274573L33.3359 2.93032L30.6802 0.274667C30.3141 -0.0914271 29.7205 -0.0914271 29.3543 0.274667L26.6986 2.93042L24.0431 0.274667C23.677 -0.0914271 23.0834 -0.0914271 22.7172 0.274667L20.0614 2.93042L17.4056 0.274667C17.0395 -0.0914271 16.4459 -0.0914271 16.0798 0.274667L13.424 2.93042L10.7685 0.274667C10.4024 -0.0914271 9.80874 -0.0914271 9.44255 0.274667L6.7868 2.93042L4.13115 0.274667C3.7673 -0.0891772 3.17883 -0.0910522 2.8118 0.26951C2.61905 0.458979 2.52558 0.711448 2.53205 0.962229V43.1252C2.53205 45.8132 4.71886 48 7.40686 48H40.5921C40.5923 48 40.5924 48 40.5926 48C40.5929 48 40.5931 48 40.5934 48C43.2814 48 45.4682 45.8132 45.4682 43.1252V24C45.4682 23.4822 45.0485 23.0626 44.5307 23.0626ZM7.40686 46.125C5.75265 46.125 4.40696 44.7792 4.40696 43.1251V3.2021L6.1239 4.91904C6.48999 5.28513 7.08361 5.28513 7.4498 4.91904L10.1056 2.26329L12.7613 4.91904C13.1274 5.28513 13.721 5.28513 14.0872 4.91904L16.743 2.26329L19.3988 4.91904C19.7649 5.28513 20.3585 5.28513 20.7246 4.91904L23.3804 2.26329L26.0361 4.91904C26.4022 5.28513 26.9958 5.28513 27.362 4.91904L30.0178 2.26329L32.6735 4.91904C33.0397 5.28513 33.6333 5.28513 33.9993 4.91904L35.7177 3.20079V24C35.7177 24.0085 35.7187 24.0169 35.719 24.0254V43.1251C35.719 44.2559 36.1071 45.2971 36.7556 46.125H7.40686ZM43.5932 43.1251C43.5932 44.7792 42.2475 46.125 40.5933 46.125C38.9392 46.125 37.5934 44.7792 37.5934 43.1251V24.9375H43.5932V43.1251Z" fill="#CED2D9"/>
<path d="M29.8368 14.8928H10.6436C10.1258 14.8928 9.70605 15.3125 9.70605 15.8303C9.70605 16.3481 10.1258 16.7678 10.6436 16.7678H29.8368C30.3546 16.7678 30.7743 16.3481 30.7743 15.8303C30.7743 15.3125 30.3546 14.8928 29.8368 14.8928Z" fill="#CED2D9"/>
<path d="M29.9552 25.3132H15.103C14.5852 25.3132 14.1655 25.733 14.1655 26.2507C14.1655 26.7685 14.5852 27.1882 15.103 27.1882H29.9552C30.473 27.1882 30.8927 26.7685 30.8927 26.2507C30.8926 25.733 30.473 25.3132 29.9552 25.3132Z" fill="#CED2D9"/>
<path d="M10.8318 25.5879C10.6574 25.4135 10.4155 25.3132 10.1689 25.3132C9.92238 25.3132 9.68051 25.4135 9.50613 25.5879C9.33176 25.7623 9.23145 26.0042 9.23145 26.2507C9.23145 26.4973 9.33176 26.7392 9.50613 26.9135C9.68051 27.0879 9.92238 27.1882 10.1689 27.1882C10.4155 27.1882 10.6574 27.0879 10.8318 26.9135C11.0061 26.7392 11.1064 26.4973 11.1064 26.2507C11.1064 26.0042 11.0061 25.7623 10.8318 25.5879Z" fill="#CED2D9"/>
<path d="M29.9552 31.5005H15.103C14.5852 31.5005 14.1655 31.9202 14.1655 32.438C14.1655 32.9558 14.5852 33.3755 15.103 33.3755H29.9552C30.473 33.3755 30.8927 32.9558 30.8927 32.438C30.8926 31.9202 30.473 31.5005 29.9552 31.5005Z" fill="#CED2D9"/>
<path d="M10.8318 31.7752C10.6574 31.6008 10.4155 31.5005 10.1689 31.5005C9.92238 31.5005 9.68051 31.6008 9.50613 31.7752C9.33176 31.9496 9.23145 32.1914 9.23145 32.438C9.23145 32.6846 9.33176 32.9264 9.50613 33.1008C9.68051 33.2752 9.92238 33.3755 10.1689 33.3755C10.4155 33.3755 10.6574 33.2752 10.8318 33.1008C11.0061 32.9264 11.1064 32.6846 11.1064 32.438C11.1064 32.1914 11.0061 31.9496 10.8318 31.7752Z" fill="#CED2D9"/>
<path d="M29.9552 37.6877H15.103C14.5852 37.6877 14.1655 38.1075 14.1655 38.6252C14.1655 39.143 14.5852 39.5628 15.103 39.5628H29.9552C30.473 39.5628 30.8927 39.143 30.8927 38.6252C30.8927 38.1075 30.473 37.6877 29.9552 37.6877Z" fill="#CED2D9"/>
<path d="M10.8318 37.9624C10.6574 37.7881 10.4155 37.6877 10.1689 37.6877C9.92238 37.6877 9.68051 37.7881 9.50613 37.9624C9.33176 38.1368 9.23145 38.3787 9.23145 38.6252C9.23145 38.8718 9.33176 39.1137 9.50613 39.2881C9.68051 39.4624 9.92238 39.5628 10.1689 39.5628C10.4155 39.5628 10.6574 39.4624 10.8318 39.2881C11.0061 39.1137 11.1064 38.8718 11.1064 38.6252C11.1064 38.3787 11.0061 38.1368 10.8318 37.9624Z" fill="#CED2D9"/>
</svg>
