<svg width="35" height="35" viewBox="0 0 35 35" fill="none" xmlns="http://www.w3.org/2000/svg">
<path d="M33.1787 15.3036C32.7591 15.1696 32.3127 15.4018 32.1787 15.8214C32.0448 16.2411 32.2591 16.6964 32.6877 16.8304C33.0448 16.9464 33.2859 17.2857 33.2859 17.6607V21.3214C33.2859 21.8036 32.9287 22.2232 32.4466 22.2232H31.3573C31.5002 21.4196 31.5716 20.5982 31.5716 19.7679C31.5716 18.1518 31.2859 16.5625 30.7323 15.0625C32.0984 13.4643 32.9287 11.3929 32.9287 9.125C32.9198 4.09821 28.8305 0 23.7948 0C18.7591 0 14.6698 4.08929 14.6698 9.125C14.6698 14.1607 18.768 18.25 23.7948 18.25C25.9287 18.25 27.893 17.5179 29.4466 16.2857C29.7859 17.4018 29.9644 18.5714 29.9644 19.7589C29.9644 25.0089 26.5626 29.5625 21.6073 31.0982C21.1519 30.3482 20.3305 29.8214 19.3841 29.8214H16.768C15.3394 29.8214 14.1787 30.9821 14.1787 32.4107C14.1787 33.8393 15.3394 35 16.768 35H19.3841C20.7323 35 21.8484 33.9821 21.9644 32.6607C24.5805 31.8661 26.9376 30.3036 28.6519 28.1429C29.6966 26.8304 30.4644 25.3571 30.9555 23.8393H32.4377C33.8037 23.8393 34.8841 22.6964 34.8841 21.3304V17.6696C34.8841 16.5804 34.2055 15.6339 33.1787 15.3036ZM19.3841 33.3929H16.768C16.2234 33.3929 15.7859 32.9554 15.7859 32.4107C15.7859 31.8661 16.2323 31.4286 16.768 31.4286H19.3841C19.8484 31.4286 20.2412 31.7768 20.3484 32.2143C20.3484 32.2232 20.3484 32.2411 20.3573 32.25C20.3662 32.3125 20.3751 32.3571 20.3751 32.4286C20.3751 32.9643 19.9287 33.3929 19.3841 33.3929Z" fill="#1E2D55"/>
<path d="M13.259 7.9912C13.4554 8.39299 13.2947 8.87513 12.8929 9.06263C8.76793 11.0716 6.22328 15.1698 6.22328 19.759V23.0001C6.22328 23.4465 5.83043 23.8394 5.384 23.8394H3.70543C2.33936 23.8394 1.21436 22.6965 1.21436 21.3305V17.6698C1.21436 16.5894 1.91078 15.643 2.93757 15.3126C3.35721 15.1787 3.81257 15.4108 3.95543 15.8305C4.09828 16.2501 3.85721 16.7055 3.43757 16.8394C3.08043 16.9555 2.8215 17.2948 2.8215 17.6698V21.3305C2.8215 21.8126 3.22328 22.2323 3.70543 22.2323H4.60721V19.759C4.60721 17.1787 5.3215 14.6698 6.70543 12.5091C8.05364 10.4019 9.92864 8.71441 12.1697 7.62513C12.5715 7.41977 13.0626 7.58942 13.259 7.9912Z" fill="#1E2D55"/>
<ellipse cx="23.8196" cy="9.23611" rx="9.23611" ry="9.23611" fill="#CBAB97"/>
<path d="M22.3751 9.73211C22.768 9.33033 23.143 8.9464 23.143 8.04461C23.143 6.78568 22.1251 5.76782 20.8662 5.76782C19.6072 5.76782 18.5894 6.78568 18.5894 8.04461C18.5894 8.49104 18.9465 8.84818 19.3929 8.84818C19.8394 8.84818 20.1965 8.49104 20.1965 8.04461C20.1965 7.67854 20.5001 7.37497 20.8662 7.37497C21.2322 7.37497 21.5358 7.67854 21.5358 8.04461C21.5358 8.29461 21.5358 8.29461 21.2322 8.60711C21.1876 8.65175 21.134 8.70533 21.0804 8.7589L18.8215 11.116C18.8126 11.125 18.8126 11.1339 18.8126 11.1339H18.8036C18.7411 11.2053 18.6965 11.2857 18.6608 11.366C18.6251 11.4643 18.5983 11.5625 18.5983 11.6696C18.5983 11.7857 18.6251 11.8928 18.6608 11.991C18.7054 12.0893 18.7501 12.1785 18.8304 12.25H18.8215L18.8394 12.2232H18.8483L18.8572 12.241V12.25C18.9376 12.3214 19.0269 12.3839 19.1251 12.4196C19.2054 12.4464 19.2858 12.4732 19.3751 12.4732V12.4821C19.384 12.4821 19.4019 12.491 19.4108 12.491H22.2947C22.7412 12.491 23.0983 12.1339 23.0983 11.6875C23.0983 11.241 22.7412 10.8839 22.2947 10.8839H21.2947L22.2501 9.87497C22.2858 9.83033 22.3305 9.77675 22.3751 9.73211Z" fill="#1E2D55"/>
<path d="M28.1876 5.80354C27.7412 5.80354 27.3751 6.13389 27.3751 6.58032V8.0714C27.3751 8.43747 27.0716 8.72318 26.7055 8.72318C26.3394 8.72318 26.0359 8.41961 26.0359 8.05354V6.57139C26.0359 6.12497 25.6787 5.76782 25.2323 5.76782C24.7859 5.76782 24.4287 6.12497 24.4287 6.57139V8.04461C24.4287 9.30354 25.4466 10.3214 26.7055 10.3214C26.9376 10.3214 27.1966 10.2857 27.3751 10.2232V11.6696C27.3751 12.116 27.7323 12.4732 28.1787 12.4732C28.6251 12.4732 28.9823 12.116 28.9823 11.6696V8.08032C28.9823 8.0714 28.9823 8.06247 28.9823 8.05354V6.57139C28.9912 6.13389 28.6341 5.80354 28.1876 5.80354Z" fill="#1E2D55"/>
</svg>
