<svg width="56" height="56" viewBox="0 0 56 56" fill="none" xmlns="http://www.w3.org/2000/svg">
<path d="M41.9839 18.7948C41.1219 17.8859 39.6848 17.8459 38.7745 18.71L24.2811 32.4551L17.3682 25.3574C16.4926 24.4591 15.0571 24.4394 14.158 25.3151C13.2597 26.1899 13.2408 27.6269 14.1156 28.5252L22.5913 37.2272C23.0354 37.6835 23.6257 37.9136 24.2175 37.9136C24.7791 37.9136 25.3406 37.7062 25.7803 37.2908L41.8992 22.0043C42.8088 21.1416 42.8473 19.7045 41.9839 18.7948Z" fill="#35A062"/>
<path d="M28 0C12.5606 0 0 12.5606 0 28C0 43.4394 12.5606 56 28 56C43.4394 56 56 43.4394 56 28C56 12.5606 43.4394 0 28 0ZM28 51.4595C15.0648 51.4595 4.54048 40.9361 4.54048 28C4.54048 15.0648 15.0647 4.54048 28 4.54048C40.936 4.54048 51.4595 15.0647 51.4595 28C51.4595 40.936 40.936 51.4595 28 51.4595Z" fill="#35A062"/>
</svg>
