<svg width="48" height="48" viewBox="0 0 48 48" fill="none" xmlns="http://www.w3.org/2000/svg">
<g opacity="0.4">
<path d="M43.3125 1.875H28.2188C27.7011 1.875 27.2812 2.29481 27.2812 2.8125C27.2812 3.33019 27.7011 3.75 28.2188 3.75H43.3125C44.8633 3.75 46.125 5.01169 46.125 6.5625V28.769H38.9575L31.9858 24.7429C32.4512 24.6879 32.8125 24.2927 32.8125 23.8125V18.5625C32.8125 18.0448 32.3927 17.625 31.875 17.625H26.625C26.1073 17.625 25.6875 18.0448 25.6875 18.5625V23.8125C25.6875 24.3302 26.1073 24.75 26.625 24.75H27.5626L27.563 28.769H1.875V6.5625C1.875 5.01169 3.13669 3.75 4.6875 3.75H19.7817C20.2994 3.75 20.7192 3.33019 20.7192 2.8125C20.7192 2.29481 20.2994 1.875 19.7817 1.875H4.6875C2.10281 1.875 0 3.97781 0 6.5625V32.8125C0 35.3972 2.10281 37.5 4.6875 37.5H18.5625V44.25H16.2813C15.7636 44.25 15.3438 44.6698 15.3438 45.1875C15.3438 45.7052 15.7636 46.125 16.2813 46.125H31.7187C32.2364 46.125 32.6562 45.7052 32.6562 45.1875C32.6562 44.6698 32.2364 44.25 31.7187 44.25H29.4375V40.2463L31.7766 37.9405L35.5555 44.4858C35.6798 44.7011 35.8846 44.8582 36.1248 44.9226C36.2047 44.944 36.2861 44.9545 36.3674 44.9545C36.5305 44.9545 36.6924 44.912 36.8362 44.8289L42.5328 41.54C42.9812 41.281 43.1348 40.7078 42.8759 40.2593L41.2827 37.5H43.3125C45.8972 37.5 48 35.3972 48 32.8125V6.5625C48 3.97781 45.8972 1.875 43.3125 1.875ZM27.5625 19.5H30.9375V22.875H27.5625V19.5ZM1.875 32.8125V30.644H27.5632L27.5637 35.625H19.5H4.6875C3.13669 35.625 1.875 34.3633 1.875 32.8125ZM20.4375 44.25V37.5H27.5625V44.25H20.4375ZM36.7105 42.7364L32.794 35.9528C32.6489 35.7013 32.3955 35.5314 32.1079 35.4924C32.066 35.4867 32.0239 35.484 31.9821 35.484C31.7376 35.484 31.5006 35.5797 31.3239 35.7538L29.4389 37.612L29.4377 25.4365L39.9813 31.5254L37.4296 32.2287C37.1497 32.3059 36.9214 32.5083 36.8113 32.7769C36.7012 33.0455 36.7217 33.3499 36.8668 33.6013L40.7833 40.385L36.7105 42.7364ZM43.3125 35.625H40.2002L39.0969 33.7141L42.6392 32.7377C43.0036 32.6373 43.272 32.3278 43.32 31.953C43.368 31.5781 43.1862 31.2111 42.8589 31.022L42.2044 30.644H46.125V32.8125C46.125 34.3633 44.8633 35.625 43.3125 35.625Z" fill="#848E9F"/>
<path d="M8.25 7.125C6.28566 7.125 4.6875 8.72316 4.6875 10.6875C4.6875 12.6518 6.28566 14.25 8.25 14.25C10.2143 14.25 11.8125 12.6518 11.8125 10.6875C11.8125 8.72316 10.2143 7.125 8.25 7.125ZM8.25 12.375C7.31953 12.375 6.5625 11.618 6.5625 10.6875C6.5625 9.75703 7.31953 9 8.25 9C9.18047 9 9.9375 9.75703 9.9375 10.6875C9.9375 11.618 9.18047 12.375 8.25 12.375Z" fill="#848E9F"/>
<path d="M15.1875 10.6875C15.1875 12.6518 16.7857 14.25 18.75 14.25C20.7143 14.25 22.3125 12.6518 22.3125 10.6875C22.3125 8.72316 20.7143 7.125 18.75 7.125C16.7857 7.125 15.1875 8.72316 15.1875 10.6875ZM20.4375 10.6875C20.4375 11.618 19.6805 12.375 18.75 12.375C17.8195 12.375 17.0625 11.618 17.0625 10.6875C17.0625 9.75703 17.8195 9 18.75 9C19.6805 9 20.4375 9.75703 20.4375 10.6875Z" fill="#848E9F"/>
<path d="M29.25 14.25C31.2143 14.25 32.8125 12.6518 32.8125 10.6875C32.8125 8.72316 31.2143 7.125 29.25 7.125C27.2857 7.125 25.6875 8.72316 25.6875 10.6875C25.6875 12.6518 27.2857 14.25 29.25 14.25ZM29.25 9C30.1805 9 30.9375 9.75703 30.9375 10.6875C30.9375 11.618 30.1805 12.375 29.25 12.375C28.3195 12.375 27.5625 11.618 27.5625 10.6875C27.5625 9.75703 28.3195 9 29.25 9Z" fill="#848E9F"/>
<path d="M39.75 14.25C41.7143 14.25 43.3125 12.6518 43.3125 10.6875C43.3125 8.72316 41.7143 7.125 39.75 7.125C37.7857 7.125 36.1875 8.72316 36.1875 10.6875C36.1875 12.6518 37.7857 14.25 39.75 14.25ZM39.75 9C40.6805 9 41.4375 9.75703 41.4375 10.6875C41.4375 11.618 40.6805 12.375 39.75 12.375C38.8195 12.375 38.0625 11.618 38.0625 10.6875C38.0625 9.75703 38.8195 9 39.75 9Z" fill="#848E9F"/>
<path d="M8.25 17.625C6.28566 17.625 4.6875 19.2232 4.6875 21.1875C4.6875 23.1518 6.28566 24.75 8.25 24.75C10.2143 24.75 11.8125 23.1518 11.8125 21.1875C11.8125 19.2232 10.2143 17.625 8.25 17.625ZM8.25 22.875C7.31953 22.875 6.5625 22.118 6.5625 21.1875C6.5625 20.257 7.31953 19.5 8.25 19.5C9.18047 19.5 9.9375 20.257 9.9375 21.1875C9.9375 22.118 9.18047 22.875 8.25 22.875Z" fill="#848E9F"/>
<path d="M16.125 17.625C15.6073 17.625 15.1875 18.0448 15.1875 18.5625V23.8125C15.1875 24.3302 15.6073 24.75 16.125 24.75H21.375C21.8927 24.75 22.3125 24.3302 22.3125 23.8125V18.5625C22.3125 18.0448 21.8927 17.625 21.375 17.625H16.125ZM20.4375 22.875H17.0625V19.5H20.4375V22.875Z" fill="#848E9F"/>
<path d="M39.75 24.75C41.7143 24.75 43.3125 23.1518 43.3125 21.1875C43.3125 19.2232 41.7143 17.625 39.75 17.625C37.7857 17.625 36.1875 19.2232 36.1875 21.1875C36.1875 23.1518 37.7857 24.75 39.75 24.75ZM39.75 19.5C40.6805 19.5 41.4375 20.257 41.4375 21.1875C41.4375 22.118 40.6805 22.875 39.75 22.875C38.8195 22.875 38.0625 22.118 38.0625 21.1875C38.0625 20.257 38.8195 19.5 39.75 19.5Z" fill="#848E9F"/>
<path d="M24 3.76391C24.2466 3.76391 24.4884 3.6637 24.6627 3.48923C24.8371 3.31485 24.9375 3.07307 24.9375 2.82642C24.9375 2.57892 24.8372 2.33798 24.6627 2.1637C24.4884 1.98932 24.2466 1.88892 24 1.88892C23.7534 1.88892 23.5116 1.98923 23.3372 2.1637C23.1628 2.33798 23.0625 2.57985 23.0625 2.82642C23.0625 3.07204 23.1627 3.31391 23.3372 3.48923C23.5116 3.6637 23.7534 3.76391 24 3.76391Z" fill="#848E9F"/>
</g>
</svg>
