<svg width="18" height="18" viewBox="0 0 18 18" fill="none" xmlns="http://www.w3.org/2000/svg">
<path d="M9 18C4.0372 18 0 13.9628 0 9C0 4.0372 4.0372 0 9 0C13.9628 0 18 4.0372 18 9C18 13.9628 13.9628 18 9 18ZM9 1.125C4.65752 1.125 1.125 4.65752 1.125 9C1.125 13.3425 4.65752 16.875 9 16.875C13.3425 16.875 16.875 13.3425 16.875 9C16.875 4.65752 13.3425 1.125 9 1.125Z" fill="#848E9F"/>
<path d="M5.11144 9.11203C5.0146 9.01519 4.9545 8.88161 4.95506 8.73391C4.95506 8.4385 5.19452 8.19903 5.48993 8.19903L12.9768 8.19894C13.2723 8.19903 13.5117 8.4385 13.5117 8.73391C13.5117 9.02932 13.2723 9.26878 12.9768 9.26887L5.48993 9.26878C5.34121 9.26832 5.20772 9.20831 5.11144 9.11203Z" fill="#848E9F"/>
<path d="M8.8543 12.8549C8.75755 12.7581 8.69746 12.6246 8.69801 12.4769L8.69755 4.99058C8.69746 4.69508 8.93692 4.45561 9.23242 4.4557C9.52792 4.45561 9.76739 4.69508 9.7673 4.99058L9.7673 12.4773C9.76739 12.7728 9.52792 13.0123 9.23242 13.0122C9.08472 13.0118 8.95114 12.9517 8.8543 12.8549Z" fill="#848E9F"/>
</svg>
