<svg width="42" height="42" viewBox="0 0 42 42" fill="none" xmlns="http://www.w3.org/2000/svg">
<path d="M21 42C9.42014 42 0 32.5799 0 21C0 9.42014 9.42014 0 21 0C32.5799 0 42 9.42014 42 21C42 32.5799 32.5799 42 21 42ZM21 2.625C10.8675 2.625 2.625 10.8675 2.625 21C2.625 31.1325 10.8675 39.375 21 39.375C31.1325 39.375 39.375 31.1325 39.375 21C39.375 10.8675 31.1325 2.625 21 2.625Z" fill="white"/>
<path d="M14.5036 28.8083C14.1674 28.8083 13.8313 28.6808 13.5759 28.4235C13.0632 27.9108 13.0632 27.0796 13.5759 26.5669L26.5695 13.5729C27.0826 13.0602 27.9138 13.0602 28.4265 13.5729C28.9392 14.0856 28.9392 14.9168 28.4265 15.4299L15.4325 28.4235C15.1736 28.6808 14.8378 28.8083 14.5036 28.8083Z" fill="white"/>
<path d="M27.4962 28.8082C27.1603 28.8082 26.8242 28.6807 26.5688 28.4234L13.5752 15.4314C13.0622 14.9187 13.0622 14.0875 13.5752 13.5748C14.0879 13.0617 14.9191 13.0617 15.4318 13.5748L28.4254 26.5684C28.9384 27.0811 28.9384 27.9123 28.4254 28.425C28.1684 28.6807 27.8323 28.8082 27.4962 28.8082Z" fill="white"/>
</svg>
