<svg width="36" height="36" viewBox="0 0 36 36" fill="none" xmlns="http://www.w3.org/2000/svg">
<g clip-path="url(#clip0)">
<path d="M1.17368 16.826L23.8695 16.826C24.5175 16.826 25.0435 17.3519 25.0435 17.9999C25.0435 18.6479 24.5175 19.1738 23.8695 19.1738L1.17368 19.1738C0.525675 19.1738 -0.000236465 18.6479 -0.000236409 17.9999C-0.000236352 17.3519 0.525675 16.826 1.17368 16.826Z" fill="#848E9F"/>
<path d="M17.6086 10.5653C17.9092 10.5653 18.2096 10.6793 18.4383 10.9095L24.699 17.1702C25.1576 17.6291 25.1576 18.3725 24.699 18.8311L18.4383 25.0919C17.9797 25.5504 17.2363 25.5504 16.7774 25.0919C16.3189 24.6333 16.3189 23.8899 16.7774 23.4313L22.2088 18L16.7774 12.5686C16.3189 12.11 16.3189 11.3666 16.7774 10.908C17.0076 10.6793 17.3082 10.5653 17.6086 10.5653Z" fill="#848E9F"/>
<path d="M18.7825 0.782561C28.2756 0.782562 36 8.507 36 18C36 27.4931 28.2756 35.2175 18.7825 35.2175C11.6594 35.2175 5.37021 30.932 2.75786 24.2984C2.51997 23.6959 2.81747 23.015 3.4199 22.7757C4.02262 22.5406 4.70358 22.8335 4.94289 23.4391C7.19843 29.168 12.6312 32.8697 18.7825 32.8697C26.9813 32.8697 33.6522 26.1985 33.6522 18C33.6522 9.80157 26.9813 3.13039 18.7825 3.13039C12.6312 3.13039 7.19843 6.83211 4.94289 12.5592C4.70502 13.1651 4.02405 13.4577 3.4199 13.223C2.81747 12.9851 2.51998 12.3027 2.75786 11.7C5.37021 5.06809 11.6594 0.78256 18.7825 0.782561Z" fill="#848E9F"/>
</g>
<defs>
<clipPath id="clip0">
<rect width="36" height="36" fill="white" transform="translate(36 36) rotate(-180)"/>
</clipPath>
</defs>
</svg>
