<svg width="64" height="48" viewBox="0 0 64 48" fill="none" xmlns="http://www.w3.org/2000/svg">
<g opacity="0.4">
<path d="M57.5002 0.799805H5.5002C2.9002 0.799805 0.700195 2.8998 0.700195 5.5998V42.4998C0.700195 45.0998 2.8002 47.2998 5.5002 47.2998H57.4002C60.0002 47.2998 62.2002 45.1998 62.2002 42.4998V5.4998C62.3002 2.8998 60.1002 0.799805 57.5002 0.799805ZM6.3002 2.8998H56.7002H58.5002L57.2002 4.1998L32.2002 29.2998L31.7002 29.7998L31.2002 29.2998L5.8002 4.1998L4.5002 2.8998H6.3002ZM2.9002 43.4998V41.6998V6.2998V4.4998L4.2002 5.7998L22.0002 23.3998L22.5002 23.8998L22.0002 24.3998L4.2002 42.1998L2.9002 43.4998ZM56.7002 45.0998H6.3002H4.5002L5.8002 43.7998L23.6002 25.9998L24.1002 25.4998L24.6002 25.9998L30.8002 32.1998C31.0002 32.3998 31.3002 32.4998 31.6002 32.4998C31.9002 32.4998 32.2002 32.3998 32.4002 32.1998L38.5002 26.0998L39.0002 25.5998L39.5002 26.0998L57.2002 43.7998L58.5002 45.0998H56.7002ZM60.1002 6.2998V41.6998V43.4998L58.8002 42.1998L41.1002 24.4998L40.6002 23.9998L41.1002 23.4998L58.8002 5.7998L60.1002 4.4998V6.2998Z" fill="#848E9F"/>
</g>
</svg>
