<svg width="58" height="58" viewBox="0 0 58 58" fill="none" xmlns="http://www.w3.org/2000/svg">
<g opacity="0.4">
<path d="M53.1667 17.4H42.5333V12.5667C42.5333 12.5454 42.5225 12.527 42.5206 12.5058C42.5159 12.4213 42.4993 12.3373 42.4715 12.2575C42.4606 12.2264 42.4531 12.1966 42.4394 12.1664C42.3927 12.0611 42.3271 11.9653 42.2464 11.8832L30.6464 0.283203C30.5638 0.202018 30.4675 0.136881 30.3622 0.089681C30.3329 0.0774089 30.3051 0.0693848 30.2749 0.0590006C30.1928 0.0306803 30.1069 0.0136881 30.02 0.00849609C30.0044 0.0108561 29.987 0 29.9667 0H4.83333C2.16509 0.00330404 0.00330404 2.16509 0 4.83333V49.3C0.00330404 51.9682 2.16509 54.13 4.83333 54.1333H25.2301C25.6927 56.3824 27.6708 57.9972 29.9667 58H53.1667C55.8349 57.9967 57.9967 55.8349 58 53.1667V22.2333C57.9967 19.5651 55.8349 17.4033 53.1667 17.4ZM39.2331 11.6H31.9C31.3662 11.6 30.9333 11.1672 30.9333 10.6333V3.30026L39.2331 11.6ZM1.93333 49.3V4.83333C1.93333 3.23182 3.23182 1.93333 4.83333 1.93333H29V10.6333C29 12.2348 30.2985 13.5333 31.9 13.5333H40.6V17.4H29.9667C27.2984 17.4033 25.1366 19.5651 25.1333 22.2333V52.2H4.83333C3.23182 52.2 1.93333 50.9015 1.93333 49.3ZM56.0667 53.1667C56.0667 54.7682 54.7682 56.0667 53.1667 56.0667H29.9667C28.3652 56.0667 27.0667 54.7682 27.0667 53.1667V22.2333C27.0667 20.6318 28.3652 19.3333 29.9667 19.3333H53.1667C54.7682 19.3333 56.0667 20.6318 56.0667 22.2333V53.1667Z" fill="#848E9F"/>
<path d="M49.3 21.2666H33.8333C31.1651 21.2699 29.0033 23.4317 29 26.0999V29.9666C29.0033 32.6348 31.1651 34.7966 33.8333 34.7999H49.3C51.9682 34.7966 54.13 32.6348 54.1333 29.9666V26.0999C54.13 23.4317 51.9682 21.2699 49.3 21.2666ZM52.2 29.9666C52.2 31.5681 50.9015 32.8666 49.3 32.8666H33.8333C32.2318 32.8666 30.9333 31.5681 30.9333 29.9666V26.0999C30.9333 24.4984 32.2318 23.1999 33.8333 23.1999H49.3C50.9015 23.1999 52.2 24.4984 52.2 26.0999V29.9666Z" fill="#848E9F"/>
<path d="M32.8667 36.7334C30.7313 36.7334 29 38.4647 29 40.6001C29 42.7354 30.7313 44.4667 32.8667 44.4667C35.002 44.4667 36.7333 42.7354 36.7333 40.6001C36.7333 38.4647 35.002 36.7334 32.8667 36.7334ZM32.8667 42.5334C31.799 42.5334 30.9333 41.6677 30.9333 40.6001C30.9333 39.5324 31.799 38.6667 32.8667 38.6667C33.9343 38.6667 34.8 39.5324 34.8 40.6001C34.8 41.6677 33.9343 42.5334 32.8667 42.5334Z" fill="#848E9F"/>
<path d="M41.5669 36.7334C39.4315 36.7334 37.7002 38.4647 37.7002 40.6001C37.7002 42.7354 39.4315 44.4667 41.5669 44.4667C43.7022 44.4667 45.4335 42.7354 45.4335 40.6001C45.4335 38.4647 43.7022 36.7334 41.5669 36.7334ZM41.5669 42.5334C40.4992 42.5334 39.6335 41.6677 39.6335 40.6001C39.6335 39.5324 40.4992 38.6667 41.5669 38.6667C42.6345 38.6667 43.5002 39.5324 43.5002 40.6001C43.5002 41.6677 42.6345 42.5334 41.5669 42.5334Z" fill="#848E9F"/>
<path d="M32.8667 46.3999C30.7313 46.3999 29 48.1312 29 50.2666C29 52.4019 30.7313 54.1332 32.8667 54.1332C35.002 54.1332 36.7333 52.4019 36.7333 50.2666C36.7333 48.1312 35.002 46.3999 32.8667 46.3999ZM32.8667 52.1999C31.799 52.1999 30.9333 51.3342 30.9333 50.2666C30.9333 49.1989 31.799 48.3332 32.8667 48.3332C33.9343 48.3332 34.8 49.1989 34.8 50.2666C34.8 51.3342 33.9343 52.1999 32.8667 52.1999Z" fill="#848E9F"/>
<path d="M41.5669 46.3999C39.4315 46.3999 37.7002 48.1312 37.7002 50.2666C37.7002 52.4019 39.4315 54.1332 41.5669 54.1332C43.7022 54.1332 45.4335 52.4019 45.4335 50.2666C45.4335 48.1312 43.7022 46.3999 41.5669 46.3999ZM41.5669 52.1999C40.4992 52.1999 39.6335 51.3342 39.6335 50.2666C39.6335 49.1989 40.4992 48.3332 41.5669 48.3332C42.6345 48.3332 43.5002 49.1989 43.5002 50.2666C43.5002 51.3342 42.6345 52.1999 41.5669 52.1999Z" fill="#848E9F"/>
<path d="M50.2666 36.7334C48.1312 36.7334 46.3999 38.4647 46.3999 40.6001V50.2667C46.3999 52.4021 48.1312 54.1334 50.2666 54.1334C52.4019 54.1334 54.1332 52.4021 54.1332 50.2667V40.6001C54.1332 38.4647 52.4019 36.7334 50.2666 36.7334ZM52.1999 50.2667C52.1999 51.3344 51.3342 52.2001 50.2666 52.2001C49.1989 52.2001 48.3332 51.3344 48.3332 50.2667V40.6001C48.3332 39.5324 49.1989 38.6667 50.2666 38.6667C51.3342 38.6667 52.1999 39.5324 52.1999 40.6001V50.2667Z" fill="#848E9F"/>
<path d="M9.95033 17.1166C10.3279 17.4937 10.9397 17.4937 11.3173 17.1166L20.0173 8.41657C20.3835 8.03708 20.3783 7.43433 20.0055 7.06144C19.6326 6.68856 19.0298 6.68337 18.6503 7.04964L9.95033 15.7496C9.5732 16.1272 9.5732 16.739 9.95033 17.1166Z" fill="#848E9F"/>
<path d="M15.4668 15.4669C15.4668 17.0684 16.7653 18.3669 18.3668 18.3669C19.9683 18.3669 21.2668 17.0684 21.2668 15.4669C21.2668 13.8654 19.9683 12.5669 18.3668 12.5669C16.7653 12.5669 15.4668 13.8654 15.4668 15.4669ZM19.3335 15.4669C19.3335 16.0007 18.9006 16.4336 18.3668 16.4336C17.833 16.4336 17.4001 16.0007 17.4001 15.4669C17.4001 14.9331 17.833 14.5002 18.3668 14.5002C18.9006 14.5002 19.3335 14.9331 19.3335 15.4669Z" fill="#848E9F"/>
<path d="M11.6002 11.5998C13.2017 11.5998 14.5002 10.3013 14.5002 8.6998C14.5002 7.09829 13.2017 5.7998 11.6002 5.7998C9.99868 5.7998 8.7002 7.09829 8.7002 8.6998C8.7002 10.3013 9.99868 11.5998 11.6002 11.5998ZM11.6002 7.73314C12.134 7.73314 12.5669 8.16597 12.5669 8.6998C12.5669 9.23364 12.134 9.66647 11.6002 9.66647C11.0664 9.66647 10.6335 9.23364 10.6335 8.6998C10.6335 8.16597 11.0664 7.73314 11.6002 7.73314Z" fill="#848E9F"/>
<path d="M6.76647 26.0998H18.3665C18.9003 26.0998 19.3331 25.667 19.3331 25.1332C19.3331 24.5993 18.9003 24.1665 18.3665 24.1665H6.76647C6.23263 24.1665 5.7998 24.5993 5.7998 25.1332C5.7998 25.667 6.23263 26.0998 6.76647 26.0998Z" fill="#848E9F"/>
<path d="M20.2998 28.0332H6.76647C6.23263 28.0332 5.7998 28.466 5.7998 28.9999C5.7998 29.5337 6.23263 29.9665 6.76647 29.9665H20.2998C20.8336 29.9665 21.2665 29.5337 21.2665 28.9999C21.2665 28.466 20.8336 28.0332 20.2998 28.0332Z" fill="#848E9F"/>
<path d="M10.6331 31.8999H6.76647C6.23263 31.8999 5.7998 32.3327 5.7998 32.8666C5.7998 33.4004 6.23263 33.8332 6.76647 33.8332H10.6331C11.167 33.8332 11.5998 33.4004 11.5998 32.8666C11.5998 32.3327 11.167 31.8999 10.6331 31.8999Z" fill="#848E9F"/>
<path d="M20.2999 31.8999H14.4999C13.966 31.8999 13.5332 32.3327 13.5332 32.8666C13.5332 33.4004 13.966 33.8332 14.4999 33.8332H20.2999C20.8337 33.8332 21.2665 33.4004 21.2665 32.8666C21.2665 32.3327 20.8337 31.8999 20.2999 31.8999Z" fill="#848E9F"/>
</g>
</svg>
