<svg width="58" height="58" viewBox="0 0 58 58" fill="none" xmlns="http://www.w3.org/2000/svg">
<g clip-path="url(#clip0)">
<path d="M47.685 17.1013C47.4745 16.8906 47.1822 16.7695 46.8844 16.7695C46.5866 16.7695 46.2945 16.8906 46.0838 17.1013C45.8732 17.312 45.752 17.6042 45.752 17.902C45.752 18.1998 45.873 18.492 46.0838 18.7026C46.2943 18.9131 46.5866 19.0345 46.8844 19.0345C47.1822 19.0345 47.4744 18.9133 47.685 18.7026C47.8956 18.4921 48.0169 18.1998 48.0169 17.902C48.0169 17.6042 47.8957 17.3119 47.685 17.1013Z" fill="#CED2D9"/>
<path d="M46.8835 14.5603C47.5088 14.5603 48.016 14.0531 48.016 13.4278V3.4056C48.016 1.53227 46.4919 0.00830079 44.6186 0.00830079H3.39741C1.52408 0.00818751 0 1.53227 0 3.4056V54.5924C0 56.4657 1.52408 57.9898 3.39741 57.9898H44.6187C46.492 57.9898 48.0161 56.4657 48.0161 54.5924V49.5061C48.0161 48.8808 47.5089 48.3736 46.8836 48.3736C46.2583 48.3736 45.7512 48.8808 45.7512 49.5061V54.5924C45.7512 55.2168 45.2431 55.7249 44.6187 55.7249H3.39741C2.77301 55.7249 2.26494 55.2168 2.26494 54.5924V3.4056C2.26494 2.78119 2.77301 2.27313 3.39741 2.27313H44.6187C45.2431 2.27313 45.7512 2.78119 45.7512 3.4056V13.4278C45.751 14.0531 46.2582 14.5603 46.8835 14.5603Z" fill="#CED2D9"/>
<path d="M57.0054 45.5564L51.1636 39.7146C52.1694 37.9189 52.7442 35.8505 52.7442 33.65C52.7442 26.7851 47.1593 21.2002 40.2944 21.2002C40.2259 21.2002 40.1577 21.2016 40.0895 21.2028V14.9716C40.0895 14.3463 39.5823 13.8392 38.957 13.8392H32.3384V7.72402C32.3384 7.09871 31.8313 6.59155 31.206 6.59155H23.4551C22.8297 6.59155 22.3226 7.09871 22.3226 7.72402V14.5187H15.704C15.0787 14.5187 14.5716 15.0259 14.5716 15.6512V21.7665H9.0602C8.43489 21.7665 7.92773 22.2736 7.92773 22.8989V29.0142C7.92773 29.6395 8.43489 30.1466 9.0602 30.1466H28.3471C28.0205 31.2585 27.8445 32.434 27.8445 33.6501C27.8445 40.5149 33.4293 46.0999 40.2943 46.0999C42.4948 46.0999 44.5633 45.5253 46.3589 44.5193L52.1624 50.3227C52.846 51.0064 53.7347 51.351 54.6197 51.3509C55.4455 51.3509 56.268 51.0508 56.917 50.4464C57.5989 49.8114 57.9833 48.9494 58 48.0194C58.0164 47.0888 57.6632 46.2143 57.0054 45.5564ZM14.5714 27.8817H10.1927V24.0314H14.5716V27.8817H14.5714ZM22.3225 27.8817H16.8364V22.8989V16.7837H22.3225V27.8817ZM24.5873 27.8817V15.6512V8.85649H30.0734V14.9717V19.072V20.6197C30.0734 21.245 30.5805 21.7522 31.2059 21.7522C31.8312 21.7522 32.3383 21.245 32.3383 20.6197V19.072V16.1042H37.8245V21.4467C34.1038 22.1985 30.9797 24.6147 29.2643 27.8817H24.5873ZM40.2943 43.835C34.6784 43.835 30.1093 39.2659 30.1093 33.65C30.1093 28.0341 34.6783 23.465 40.2943 23.465C45.9103 23.465 50.4793 28.034 50.4793 33.65C50.4793 39.266 45.9103 43.835 40.2943 43.835ZM55.3733 48.7889C54.933 49.1989 54.2113 49.1685 53.764 48.721L48.2561 43.2132C48.8369 42.7287 49.3732 42.1926 49.8577 41.6116L55.4039 47.1577C55.6232 47.377 55.7411 47.6686 55.7355 47.9788C55.7297 48.2891 55.6014 48.5766 55.3733 48.7889Z" fill="#CED2D9"/>
<path d="M43.2414 27.8599C42.6968 27.5525 42.0059 27.7444 41.6985 28.2893L35.6094 39.0752C35.302 39.6199 35.4941 40.3107 36.0388 40.6181C36.2148 40.7175 36.4059 40.7647 36.5945 40.7647C36.9896 40.7647 37.3735 40.5575 37.5816 40.1888L43.6707 29.4029C43.9783 28.858 43.786 28.1673 43.2414 27.8599Z" fill="#CED2D9"/>
<path d="M44.25 34.6169C42.3766 34.6169 40.8525 36.141 40.8525 38.0143C40.8525 39.8877 42.3766 41.4116 44.25 41.4116C46.1233 41.4116 47.6472 39.8876 47.6472 38.0143C47.6474 36.1409 46.1233 34.6169 44.25 34.6169ZM44.25 39.1467C43.6255 39.1467 43.1175 38.6386 43.1175 38.0142C43.1175 37.3898 43.6255 36.8818 44.25 36.8818C44.8744 36.8818 45.3824 37.3898 45.3824 38.0142C45.3824 38.6386 44.8745 39.1467 44.25 39.1467Z" fill="#CED2D9"/>
<path d="M36.3359 25.8884C34.4626 25.8884 32.9385 27.4125 32.9385 29.2858C32.9385 31.1592 34.4626 32.6833 36.3359 32.6833C38.2092 32.6833 39.7332 31.1592 39.7332 29.2858C39.7332 27.4125 38.2091 25.8884 36.3359 25.8884ZM36.3359 30.4182C35.7115 30.4182 35.2034 29.9101 35.2034 29.2857C35.2034 28.6613 35.7115 28.1533 36.3359 28.1533C36.9603 28.1533 37.4684 28.6613 37.4684 29.2857C37.4684 29.9101 36.9603 30.4182 36.3359 30.4182Z" fill="#CED2D9"/>
<path d="M38.6016 49.6106H7.2477C6.62239 49.6106 6.11523 50.1178 6.11523 50.7431C6.11523 51.3684 6.62239 51.8755 7.2477 51.8755H38.6016C39.2269 51.8755 39.7341 51.3684 39.7341 50.7431C39.7341 50.1178 39.2269 49.6106 38.6016 49.6106Z" fill="#CED2D9"/>
<path d="M14.5985 43.269H7.57681C6.95149 43.269 6.44434 43.7762 6.44434 44.4015C6.44434 45.0268 6.95149 45.534 7.57681 45.534H14.5985C15.2238 45.534 15.731 45.0268 15.731 44.4015C15.731 43.7762 15.2238 43.269 14.5985 43.269Z" fill="#CED2D9"/>
<path d="M19.5503 43.6008C19.3397 43.3903 19.0475 43.269 18.7497 43.269C18.4518 43.269 18.1597 43.3901 17.949 43.6008C17.7373 43.8114 17.6172 44.1037 17.6172 44.4015C17.6172 44.6993 17.7373 44.9915 17.949 45.2021C18.1596 45.4127 18.4508 45.534 18.7497 45.534C19.0475 45.534 19.3396 45.4128 19.5503 45.2021C19.7608 44.9916 19.8821 44.6993 19.8821 44.4015C19.8821 44.1036 19.761 43.8114 19.5503 43.6008Z" fill="#CED2D9"/>
<path d="M14.5985 36.927H7.57681C6.95149 36.927 6.44434 37.4342 6.44434 38.0595C6.44434 38.6848 6.95149 39.1919 7.57681 39.1919H14.5985C15.2238 39.1919 15.731 38.6848 15.731 38.0595C15.731 37.4342 15.2238 36.927 14.5985 36.927Z" fill="#CED2D9"/>
</g>
<defs>
<clipPath id="clip0">
<rect width="58" height="58" fill="white"/>
</clipPath>
</defs>
</svg>
