<svg width="20" height="20" viewBox="0 0 20 20" fill="none" xmlns="http://www.w3.org/2000/svg">
<path d="M18.4445 5.23077H16.3232V1.37237C16.3232 1.0042 16.0248 0.705688 15.6566 0.705688H4.34344C3.97527 0.705688 3.67676 1.00416 3.67676 1.37237V5.23077H1.55555C0.697812 5.23077 0 5.92862 0 6.78635V13.4935C0 14.3512 0.697812 15.049 1.55555 15.049H3.67687V18.6277C3.67687 18.9958 3.97535 19.2944 4.34355 19.2944H15.6564C16.0246 19.2944 16.3231 18.9959 16.3231 18.6277V15.049H18.4445C19.3022 15.049 20 14.3512 20 13.4935V6.78635C20 5.92866 19.3022 5.23077 18.4445 5.23077ZM5.01008 2.03905H14.9899V5.23077H5.01008V2.03905ZM14.9898 17.961H5.01023C5.01023 17.8307 5.01023 12.6679 5.01023 12.5068H14.9898C14.9898 12.672 14.9898 17.8357 14.9898 17.961ZM18.6667 13.4935C18.6667 13.616 18.567 13.7157 18.4445 13.7157H16.3231V11.8402C16.3231 11.472 16.0246 11.1735 15.6564 11.1735H4.34355C3.97539 11.1735 3.67687 11.472 3.67687 11.8402V13.7157H1.55555C1.43301 13.7157 1.33332 13.616 1.33332 13.4935V6.78639C1.33332 6.66385 1.43301 6.56416 1.55555 6.56416C2.06703 6.56416 17.945 6.56416 18.4445 6.56416C18.567 6.56416 18.6667 6.66385 18.6667 6.78639V13.4935Z" fill="#D1D5DB"/>
<path d="M15.6566 7.81213H13.9596C13.5915 7.81213 13.293 8.11061 13.293 8.47881C13.293 8.84702 13.5914 9.1455 13.9596 9.1455H15.6566C16.0248 9.1455 16.3233 8.84702 16.3233 8.47881C16.3233 8.11061 16.0248 7.81213 15.6566 7.81213Z" fill="#D1D5DB"/>
<path d="M12.8888 15.6185H7.11102C6.74285 15.6185 6.44434 15.917 6.44434 16.2852C6.44434 16.6534 6.74281 16.9519 7.11102 16.9519H12.8888C13.257 16.9519 13.5555 16.6534 13.5555 16.2852C13.5555 15.917 13.257 15.6185 12.8888 15.6185Z" fill="#D1D5DB"/>
<path d="M12.8888 13.5159H7.11102C6.74285 13.5159 6.44434 13.8143 6.44434 14.1825C6.44434 14.5508 6.74281 14.8492 7.11102 14.8492H12.8888C13.257 14.8492 13.5555 14.5508 13.5555 14.1825C13.5555 13.8143 13.257 13.5159 12.8888 13.5159Z" fill="#D1D5DB"/>
</svg>
