<svg width="51" height="48" viewBox="0 0 51 48" fill="none" xmlns="http://www.w3.org/2000/svg">
<g opacity="0.4">
<path d="M32.2453 16.2271L32.4813 16.77L33.0709 16.8241L49.5328 18.3361C49.5329 18.3361 49.533 18.3361 49.533 18.3361C49.8253 18.3631 49.9101 18.7001 49.717 18.8682C49.7169 18.8683 49.7169 18.8683 49.7169 18.8683L37.2964 29.6749L36.8449 30.0677L36.9777 30.6512L40.6126 46.6246L40.6127 46.6247C40.6416 46.7519 40.5981 46.8587 40.4922 46.9349C40.3853 47.0118 40.2587 47.0243 40.1341 46.951L40.134 46.951L25.9187 38.5911L25.4118 38.293L24.9049 38.5911L10.6896 46.951L10.6895 46.9511C10.5651 47.0243 10.4385 47.0118 10.3317 46.935C10.2258 46.8587 10.1822 46.7519 10.2112 46.6247L10.2112 46.6245L13.846 30.6512L13.9787 30.0677L13.5273 29.6749L1.10668 18.8682L0.454379 19.618L1.10667 18.8682C0.913658 18.7003 0.997893 18.3631 1.29063 18.3361C1.29068 18.3361 1.29074 18.3361 1.29079 18.3361L17.7525 16.8241L18.3421 16.77L18.5781 16.2271L25.1171 1.18855C25.1708 1.06507 25.2754 1 25.4117 1C25.548 1 25.6526 1.06507 25.7063 1.18855L32.2453 16.2271Z" stroke="#848E9F" stroke-width="2"/>
</g>
</svg>
