<svg width="58" height="58" viewBox="0 0 58 58" fill="none" xmlns="http://www.w3.org/2000/svg">
<g opacity="0.4">
<path d="M52.5625 54.375V10.875H54.375C54.6154 10.875 54.8459 10.7795 55.0158 10.6095C55.1858 10.4396 55.2812 10.2091 55.2812 9.96871V3.62496C55.2812 3.49927 55.2551 3.37496 55.2045 3.25991C55.1538 3.14487 55.0798 3.04162 54.9871 2.95672C54.8944 2.87183 54.7851 2.80714 54.6661 2.76677C54.547 2.7264 54.4209 2.71123 54.2957 2.72223L23.4832 5.44098C23.2575 5.4608 23.0473 5.56449 22.8942 5.7316C22.7412 5.8987 22.6563 6.1171 22.6562 6.34371V9.96871C22.6562 10.2091 22.7517 10.4396 22.9217 10.6095C23.0916 10.7795 23.3221 10.875 23.5625 10.875H25.375V25.375H27.1875V10.875H50.75V54.375H44.8111C45.1414 53.8379 45.315 53.2192 45.3125 52.5886C45.3125 51.2926 44.6338 50.609 44.1383 50.1099C43.6955 49.6641 43.5 49.4455 43.5 48.9375C43.5 46.6857 42.2548 44.4062 39.875 44.4062C37.4952 44.4062 36.25 46.6857 36.25 48.9375C36.25 49.4455 36.0544 49.6641 35.6118 50.1099C35.1162 50.609 34.4375 51.2926 34.4375 52.5886C34.4349 53.2191 34.6084 53.8378 34.9385 54.375H25.375V42.5937C25.375 42.3534 25.2795 42.1229 25.1096 41.9529C24.9396 41.7829 24.7091 41.6875 24.4688 41.6875H19.0312C18.7909 41.6875 18.5604 41.7829 18.3904 41.9529C18.2205 42.1229 18.125 42.3534 18.125 42.5937V54.375H15.4062V38.3719L26.2812 33.6141L37.1562 38.3719V43.5H38.9688V39.1649L40.418 39.7993C40.5559 39.8597 40.7067 39.8847 40.8568 39.8721C41.0068 39.8596 41.1514 39.8099 41.2774 39.7274C41.4034 39.645 41.5069 39.5324 41.5785 39.4C41.6501 39.2675 41.6876 39.1193 41.6875 38.9687V34.4375C41.6875 34.2613 41.6361 34.0889 41.5397 33.9415C41.4433 33.794 41.306 33.6779 41.1445 33.6072L26.6445 27.2635C26.53 27.2133 26.4063 27.1875 26.2812 27.1875C26.1562 27.1875 26.0325 27.2133 25.918 27.2635L11.418 33.6072C11.2565 33.6779 11.1192 33.794 11.0228 33.9415C10.9264 34.0889 10.875 34.2613 10.875 34.4375V38.9687C10.875 39.1193 10.9125 39.2674 10.9841 39.3999C11.0558 39.5323 11.1592 39.6448 11.2852 39.7272C11.4112 39.8096 11.5558 39.8593 11.7058 39.8718C11.8558 39.8843 12.0066 39.8593 12.1445 39.799L13.5938 39.1646V54.375H7.25V38.9687H9.0625V37.1562H3.625V17.2187H23.5625V15.4062H17.5942L14.2346 12.0466C14.1504 11.9625 14.0505 11.8957 13.9406 11.8502C13.8306 11.8046 13.7128 11.7812 13.5938 11.7812H6.34375C6.1034 11.7812 5.87289 11.8767 5.70293 12.0466C5.53298 12.2166 5.4375 12.4471 5.4375 12.6875V15.4062H2.71875C2.4784 15.4062 2.24789 15.5017 2.07793 15.6716C1.90798 15.8416 1.8125 16.0721 1.8125 16.3125V38.0625C1.8125 38.3028 1.90798 38.5333 2.07793 38.7033C2.24789 38.8732 2.4784 38.9687 2.71875 38.9687H5.4375V54.375H1.8125V56.1875H56.1875V54.375H52.5625ZM24.4688 7.1735L53.4688 4.6147V9.06246H24.4688V7.1735ZM12.6875 37.5831V35.0302L26.2812 29.0829L39.875 35.0302V37.5831L38.9688 37.1866V37.1562H38.8994L26.6445 31.7947C26.53 31.7446 26.4063 31.7187 26.2812 31.7187C26.1562 31.7187 26.0325 31.7446 25.918 31.7947L13.6631 37.1562H13.5938V37.1866L12.6875 37.5831ZM7.25 13.5937H13.2184L15.0309 15.4062H7.25V13.5937ZM19.9375 43.5H23.5625V54.375H19.9375V43.5ZM38.0625 54.375C37.5634 54.375 36.25 53.8257 36.25 52.5886C36.25 52.0616 36.4486 51.8394 36.898 51.3868C37.3894 50.8918 38.0625 50.2139 38.0625 48.9375C38.0625 46.7869 39.2481 46.2187 39.875 46.2187C41.3087 46.2187 41.6875 47.9972 41.6875 48.9375C41.6875 50.2139 42.3605 50.8918 42.8519 51.3868C43.3012 51.84 43.4999 52.0616 43.4999 52.5886C43.5 53.8257 42.1865 54.375 41.6875 54.375H38.0625Z" fill="#848E9F"/>
<path d="M28.0938 43.5C27.8534 43.5 27.6229 43.5955 27.4529 43.7654C27.283 43.9354 27.1875 44.1659 27.1875 44.4062V48.9375C27.1875 49.1779 27.283 49.4084 27.4529 49.5783C27.6229 49.7483 27.8534 49.8438 28.0938 49.8438H33.5312C33.7716 49.8438 34.0021 49.7483 34.1721 49.5783C34.342 49.4084 34.4375 49.1779 34.4375 48.9375V44.4062C34.4375 44.1659 34.342 43.9354 34.1721 43.7654C34.0021 43.5955 33.7716 43.5 33.5312 43.5H28.0938ZM32.625 48.0312H29V45.3125H32.625V48.0312Z" fill="#848E9F"/>
<path d="M22.6562 38.0625H20.8438V39.875H22.6562V38.0625Z" fill="#848E9F"/>
<path d="M15.4062 29.9062V20.8437H23.5625V19.0312H6.34375C6.1034 19.0312 5.87289 19.1267 5.70293 19.2967C5.53298 19.4666 5.4375 19.6971 5.4375 19.9375V34.4375C5.4375 34.6778 5.53298 34.9083 5.70293 35.0783C5.87289 35.2483 6.1034 35.3437 6.34375 35.3437H9.0625V33.5312H7.25V20.8437H13.5938V29.9062H15.4062Z" fill="#848E9F"/>
<path d="M30.8125 20.8438H36.25C36.4904 20.8438 36.7209 20.7483 36.8908 20.5783C37.0608 20.4084 37.1562 20.1779 37.1562 19.9375V14.5C37.1562 14.2596 37.0608 14.0291 36.8908 13.8592C36.7209 13.6892 36.4904 13.5938 36.25 13.5938H30.8125C30.5721 13.5938 30.3416 13.6892 30.1717 13.8592C30.0017 14.0291 29.9062 14.2596 29.9062 14.5V19.9375C29.9062 20.1779 30.0017 20.4084 30.1717 20.5783C30.3416 20.7483 30.5721 20.8438 30.8125 20.8438ZM31.7188 15.4062H35.3438V19.0312H31.7188V15.4062Z" fill="#848E9F"/>
<path d="M41.6875 20.8438H47.125C47.3654 20.8438 47.5959 20.7483 47.7658 20.5783C47.9358 20.4084 48.0312 20.1779 48.0312 19.9375V14.5C48.0312 14.2596 47.9358 14.0291 47.7658 13.8592C47.5959 13.6892 47.3654 13.5938 47.125 13.5938H41.6875C41.4471 13.5938 41.2166 13.6892 41.0467 13.8592C40.8767 14.0291 40.7812 14.2596 40.7812 14.5V19.9375C40.7812 20.1779 40.8767 20.4084 41.0467 20.5783C41.2166 20.7483 41.4471 20.8438 41.6875 20.8438ZM42.5938 15.4062H46.2188V19.0312H42.5938V15.4062Z" fill="#848E9F"/>
<path d="M29.9062 27.1875H31.7188V25.375H35.3438V29.9062H37.1562V24.4687C37.1562 24.2284 37.0608 23.9979 36.8908 23.8279C36.7209 23.658 36.4904 23.5625 36.25 23.5625H30.8125C30.5721 23.5625 30.3416 23.658 30.1717 23.8279C30.0017 23.9979 29.9062 24.2284 29.9062 24.4687V27.1875Z" fill="#848E9F"/>
<path d="M40.7812 29.9062C40.7812 30.1466 40.8767 30.3771 41.0467 30.547C41.2166 30.717 41.4471 30.8125 41.6875 30.8125H47.125C47.3654 30.8125 47.5959 30.717 47.7658 30.547C47.9358 30.3771 48.0312 30.1466 48.0312 29.9062V24.4687C48.0312 24.2284 47.9358 23.9979 47.7658 23.8279C47.5959 23.658 47.3654 23.5625 47.125 23.5625H41.6875C41.4471 23.5625 41.2166 23.658 41.0467 23.8279C40.8767 23.9979 40.7812 24.2284 40.7812 24.4687V29.9062ZM42.5938 25.375H46.2188V29H42.5938V25.375Z" fill="#848E9F"/>
<path d="M43.5 38.9688V40.7812H47.125C47.3654 40.7812 47.5959 40.6858 47.7658 40.5158C47.9358 40.3459 48.0312 40.1154 48.0312 39.875V34.4375C48.0312 34.1971 47.9358 33.9666 47.7658 33.7967C47.5959 33.6267 47.3654 33.5312 47.125 33.5312H43.5V35.3438H46.2188V38.9688H43.5Z" fill="#848E9F"/>
<path d="M10.875 41.6875H9.0625V43.5H10.875V41.6875Z" fill="#848E9F"/>
</g>
</svg>
