<svg width="75" height="59" viewBox="0 0 75 59" fill="none" xmlns="http://www.w3.org/2000/svg">
<path d="M74.3863 20.4744L72.4364 17.097C72.0328 16.3979 71.1392 16.1583 70.4393 16.562C69.7401 16.9656 69.5005 17.8598 69.9043 18.559L71.8541 21.9364C71.957 22.1144 71.9341 22.284 71.9113 22.3693C71.8885 22.4545 71.8234 22.613 71.6453 22.7157L66.4892 25.6926C66.2164 25.8497 65.867 25.7559 65.7097 25.4837L55.3369 7.51797C55.1796 7.24545 55.2733 6.89575 55.5458 6.73829L60.7018 3.76154C60.9743 3.60453 61.3243 3.6978 61.4815 3.97032L63.3253 7.16402C63.7291 7.86344 64.6233 8.10306 65.3224 7.69911C66.0217 7.29545 66.2613 6.40131 65.8575 5.70204L64.0136 2.50833C63.0503 0.839767 60.9091 0.265646 59.2399 1.22924L54.0838 4.20613C53.3005 4.65847 52.7585 5.37031 52.5034 6.1709H37.8865C35.8343 6.1709 33.9049 6.97002 32.4536 8.42118L30.9559 9.91884C29.6428 9.60583 28.2975 9.44487 26.9446 9.44487H22.406C22.1792 8.56899 21.6159 7.78069 20.7723 7.29355L15.6162 4.31666C14.8077 3.84985 13.8656 3.72602 12.9643 3.96754C12.0627 4.20906 11.3091 4.78742 10.8424 5.59575L0.469763 23.5616C0.00309748 24.37 -0.121025 25.3118 0.120495 26.2135C0.362015 27.1153 0.940376 27.8688 1.74885 28.3355L6.90498 31.3124C7.45396 31.6293 8.05381 31.7799 8.64635 31.7799C8.86229 31.7799 9.07705 31.759 9.28816 31.7198L13.5083 35.9401C13.4437 36.2719 13.4102 36.6121 13.4102 36.9577C13.4102 38.3625 13.9573 39.6834 14.9507 40.6767C15.9019 41.6277 17.1297 42.1369 18.3775 42.2058C18.3583 42.3891 18.3479 42.5742 18.3479 42.761C18.3479 44.166 18.895 45.4867 19.8884 46.48C20.8819 47.4734 22.2026 48.0205 23.6074 48.0205C23.6456 48.0205 23.6833 48.0186 23.7213 48.0177C23.7204 48.0557 23.7185 48.0935 23.7185 48.1316C23.7185 49.5366 24.2656 50.8573 25.259 51.8506C26.2525 52.844 27.5732 53.3911 28.978 53.3911C29.0162 53.3911 29.0539 53.3892 29.0919 53.3883C29.091 53.4263 29.0891 53.4641 29.0891 53.5022C29.0891 54.907 29.6362 56.2279 30.6296 57.2212C31.6231 58.2145 32.9438 58.7617 34.3486 58.7617C35.7535 58.7617 37.0744 58.2146 38.0676 57.2212L40.1474 55.1415C40.7572 54.5318 41.1841 53.8078 41.4314 53.0382C42.3553 53.7201 43.4533 54.0611 44.5517 54.061C45.8983 54.0608 47.2455 53.5483 48.2707 52.523C48.8841 51.9095 49.3267 51.1711 49.5761 50.3654C50.4224 50.9188 51.411 51.2164 52.4458 51.2164C53.8506 51.2164 55.1715 50.6693 56.1648 49.6759C56.903 48.9376 57.3942 48.0186 57.5981 47.0186C58.1262 47.1935 58.6841 47.2857 59.2565 47.2857C60.6613 47.2857 61.9823 46.7386 62.9756 45.7451C65.0262 43.6944 65.0262 40.3577 62.9756 38.3069L59.5633 34.8947L65.7918 28.6662C65.9301 28.6827 66.0695 28.692 66.2094 28.692C66.8019 28.692 67.4019 28.5415 67.9507 28.2247L73.1069 25.2479C73.9152 24.7811 74.4936 24.0276 74.7352 23.1258C74.9769 22.2241 74.8529 21.2827 74.3863 20.4744ZM3.21069 25.8033C3.03262 25.7005 2.96771 25.5422 2.9449 25.4568C2.9221 25.3716 2.89914 25.202 3.00207 25.0238L13.3747 7.05774C13.4775 6.87967 13.636 6.81475 13.7212 6.79195C13.7576 6.7823 13.8094 6.7725 13.8705 6.7725C13.9528 6.7725 14.052 6.79019 14.1541 6.84896L19.3102 9.82586C19.5826 9.98317 19.6764 10.3329 19.5191 10.6054L9.1465 28.5713C8.98904 28.8437 8.63963 28.9375 8.36697 28.7802L3.21069 25.8033ZM16.3342 36.9575C16.3342 36.3335 16.5772 35.7471 17.0184 35.3059L18.2801 34.0442C18.7354 33.5888 19.3335 33.3612 19.9317 33.3612C20.5297 33.3612 21.1279 33.589 21.5832 34.0442C22.0244 34.4855 22.2674 35.0719 22.2674 35.6957C22.2674 36.3195 22.0244 36.9061 21.5832 37.3471L20.3215 38.6088C19.4108 39.5197 17.9291 39.5195 17.0184 38.6088C16.5772 38.1679 16.3342 37.5814 16.3342 36.9575ZM23.6076 45.0965C22.9836 45.0965 22.3972 44.8536 21.9561 44.4125C21.5149 43.9714 21.2719 43.3848 21.2719 42.761C21.2719 42.1372 21.5149 41.5506 21.9561 41.1096L24.0358 39.0299C24.4911 38.5746 25.0892 38.347 25.6873 38.347C26.2855 38.347 26.8836 38.5746 27.3389 39.0299C27.7801 39.471 28.0231 40.0575 28.0231 40.6813C28.0231 41.3052 27.7801 41.8917 27.3389 42.3328L25.2592 44.4125C24.818 44.8537 24.2314 45.0965 23.6076 45.0965ZM28.9782 50.4673C28.3542 50.4673 27.7678 50.2243 27.3267 49.7832C26.8855 49.3421 26.6425 48.7556 26.6425 48.1318C26.6425 47.5079 26.8855 46.9214 27.3267 46.4802L29.4064 44.4005C29.8617 43.9452 30.4598 43.7176 31.0579 43.7176C31.6559 43.7176 32.2542 43.9452 32.7095 44.4006C33.1507 44.8417 33.3937 45.4283 33.3937 46.0521C33.3937 46.6759 33.1507 47.2625 32.7095 47.7036L30.6298 49.7832C30.1887 50.2243 29.6022 50.4673 28.9782 50.4673ZM38.0801 53.0742L36.0002 55.154C35.5592 55.5951 34.9728 55.838 34.3488 55.838C33.7248 55.838 33.1384 55.5951 32.6973 55.154C32.2561 54.7127 32.0131 54.1263 32.0131 53.5025C32.0131 52.8785 32.2561 52.2921 32.6973 51.8509L34.777 49.7712C35.2323 49.3158 35.8304 49.0882 36.4286 49.0882C37.0266 49.0882 37.6248 49.316 38.0801 49.7711C38.9907 50.6816 38.9907 52.1635 38.0801 53.0742ZM60.9084 43.6778C60.4671 44.1191 59.8807 44.362 59.2568 44.362C58.6329 44.362 58.0465 44.1191 57.6053 43.6778L43.6507 29.7232C43.0798 29.1524 42.1543 29.1523 41.583 29.7232C41.0121 30.2941 41.0121 31.2198 41.583 31.7907L54.0976 44.3055C54.5388 44.7465 54.7818 45.3331 54.7818 45.9569C54.7818 46.5807 54.5388 47.1673 54.0976 47.6085C53.6565 48.0496 53.0701 48.2926 52.4461 48.2926C51.8221 48.2926 51.2357 48.0496 50.7946 47.6085L35.7565 32.5704C35.1856 31.9996 34.2599 31.9996 33.6888 32.5704C33.1179 33.1413 33.1179 34.067 33.6888 34.6379L46.2034 47.1527C46.6447 47.5938 46.8876 48.1803 46.8876 48.8041C46.8876 49.428 46.6447 50.0145 46.2034 50.4556C45.2929 51.3663 43.8112 51.3666 42.9004 50.4556L40.148 47.7033C40.1442 47.6995 40.14 47.6962 40.1362 47.6926C39.0833 46.646 37.6944 46.1388 36.3149 46.1685C36.3157 46.1297 36.3176 46.0911 36.3176 46.0521C36.3176 44.6473 35.7706 43.3264 34.7771 42.333C33.7229 41.2787 32.3288 40.768 30.9441 40.7977C30.945 40.759 30.9469 40.7204 30.9469 40.6815C30.9469 39.2765 30.3998 37.9558 29.4064 36.9624C28.2535 35.8094 26.694 35.3049 25.1852 35.4483C25.1248 34.1365 24.5855 32.9116 23.6507 31.9768C21.6 29.9261 18.2631 29.9265 16.2124 31.9768L14.9507 33.2385C14.9493 33.24 14.9478 33.2416 14.9463 33.2431L11.6999 29.9966L21.8772 12.3688H26.9444C27.4409 12.3688 27.9361 12.3952 28.4285 12.4463L26.7573 14.1175C25.7639 15.1109 25.2168 16.4318 25.2168 17.8367C25.2168 19.2416 25.7639 20.5624 26.7573 21.5558C27.7827 22.5811 29.1296 23.0938 30.4763 23.0938C31.8232 23.0938 33.1701 22.5812 34.1954 21.5558L38.1422 17.609L60.9082 40.3749C61.8189 41.2854 61.8189 42.7673 60.9084 43.6778ZM46.8619 22.1932C48.9894 20.6535 50.2935 18.1687 50.2935 15.4691C50.2935 14.6617 49.6388 14.0071 48.8315 14.0071C48.0242 14.0071 47.3695 14.6617 47.3695 15.4691C47.3695 17.3789 46.3607 19.1209 44.7512 20.0827L39.1828 14.5143C38.6118 13.9434 37.6877 13.9285 37.1166 14.4994L32.1279 19.4881C31.2172 20.3988 29.7355 20.3986 28.8248 19.4881C28.3836 19.047 28.1406 18.4605 28.1406 17.8367C28.1406 17.2128 28.3836 16.6263 28.8248 16.1851L34.5211 10.4887C35.42 9.58989 36.6152 9.09487 37.8865 9.09487H52.8711L63.1774 26.946C63.2018 26.9882 63.2284 27.0285 63.2543 27.0692L57.4961 32.8274L46.8619 22.1932Z" fill="#CED2D9"/>
<path d="M67.8815 13.593C68.266 13.593 68.6417 13.4366 68.9151 13.1646C69.1869 12.8912 69.3435 12.5155 69.3435 12.131C69.3435 11.745 69.1871 11.3693 68.9151 11.0959C68.6417 10.8239 68.266 10.6689 67.8815 10.6689C67.4955 10.6689 67.1197 10.8239 66.8478 11.0959C66.5744 11.3693 66.4194 11.745 66.4194 12.131C66.4194 12.5155 66.5744 12.8912 66.8478 13.1646C67.1197 13.4367 67.4955 13.593 67.8815 13.593Z" fill="#CED2D9"/>
</svg>
