<svg width="10" height="10" viewBox="0 0 10 10" fill="none" xmlns="http://www.w3.org/2000/svg">
<path d="M0.840006 9.99925C0.624825 9.99925 0.409644 9.91761 0.246156 9.75289C-0.0820518 9.42468 -0.0820518 8.89258 0.246156 8.56437L8.56416 0.246156C8.89257 -0.0820519 9.42468 -0.0820519 9.75289 0.246156C10.0811 0.574363 10.0811 1.10647 9.75289 1.43488L1.43468 9.75289C1.26893 9.91761 1.05396 9.99925 0.840006 9.99925Z" fill="#CBAB97"/>
<path d="M9.15796 9.99963C8.94298 9.99963 8.7278 9.91799 8.56432 9.75327L0.246309 1.4363C-0.0821031 1.10809 -0.0821031 0.575981 0.246309 0.247774C0.574517 -0.0806383 1.10662 -0.0806383 1.43483 0.247774L9.75284 8.56578C10.0812 8.89399 10.0812 9.42609 9.75284 9.7543C9.58832 9.91799 9.37314 9.99963 9.15796 9.99963Z" fill="#CBAB97"/>
</svg>
