<svg width="100" height="100" viewBox="0 0 100 100" fill="none" xmlns="http://www.w3.org/2000/svg">
<circle cx="49.2595" cy="49.2595" r="36.2595" fill="#CBAB97"/>
<path d="M37.7347 62.1676L37.6429 62.4859L37.9003 62.6946C38.2093 62.9451 38.5272 63.1858 38.8544 63.4167C41.7252 65.4429 45.2263 66.635 49 66.635C52.7737 66.635 56.2748 65.4429 59.1456 63.4167C59.4728 63.1858 59.7907 62.9451 60.0997 62.6946L60.3571 62.4859L60.2652 62.1675C58.833 57.2045 54.2627 53.7102 49 53.7102C45.8679 53.7102 42.922 54.9316 40.7076 57.1454L40.7075 57.1455C39.2955 58.5575 38.2803 60.2764 37.7347 62.1676ZM62.2975 59.4161L62.6473 60.1898L63.1542 59.5086C65.3392 56.5721 66.635 52.9343 66.635 49C66.635 39.2752 58.7248 31.365 49 31.365C39.2752 31.365 31.365 39.2752 31.365 49C31.365 52.9343 32.6598 56.5706 34.8459 59.5072L35.3524 60.1876L35.7024 59.4149C36.4208 57.8288 37.4234 56.3764 38.6809 55.1189C39.9388 53.861 41.3839 52.8624 42.9534 52.1491L43.6258 51.8435L43.0923 51.3328C41.4663 49.7762 40.4534 47.5859 40.4534 45.1632C40.4534 40.451 44.2878 36.6166 49 36.6166C53.7122 36.6166 57.5466 40.451 57.5466 45.1632C57.5466 47.5873 56.5323 49.7786 54.9043 51.3367L54.3707 51.8473L55.043 52.1531C58.2333 53.6043 60.8327 56.1767 62.2975 59.4161ZM69.5 49C69.5 60.3033 60.3033 69.5 49 69.5C37.6967 69.5 28.5 60.3033 28.5 49C28.5 37.6967 37.6967 28.5 49 28.5C60.3033 28.5 69.5 37.6967 69.5 49ZM49 39.4816C45.8664 39.4816 43.3184 42.0295 43.3184 45.1632C43.3184 48.2967 45.8663 50.8452 49 50.8452C52.1337 50.8452 54.6816 48.2967 54.6816 45.1632C54.6816 42.0295 52.1336 39.4816 49 39.4816Z" fill="white" stroke="#CBAB97"/>
<circle cx="50" cy="50" r="49" stroke="url(#paint0_linear)" stroke-width="2"/>
<defs>
<linearGradient id="paint0_linear" x1="87.0229" y1="77.8626" x2="20.9924" y2="11.8321" gradientUnits="userSpaceOnUse">
<stop stop-color="#CBAB97"/>
<stop offset="1" stop-color="#CBAB97" stop-opacity="0"/>
</linearGradient>
</defs>
</svg>
