<svg width="20" height="20" viewBox="0 0 20 20" fill="none" xmlns="http://www.w3.org/2000/svg">
<g clip-path="url(#clip0)">
<path d="M10.0152 10.1288C9.75072 10.1283 9.48972 10.068 9.25179 9.95248L2.82518 6.86597L0.630291 7.92028C0.509778 7.97951 0.433167 8.10226 0.433167 8.23672C0.433167 8.37118 0.509778 8.49393 0.630291 8.55315L9.55686 12.8455C9.84696 12.9825 10.1834 12.9825 10.4735 12.8455L19.4 8.55487C19.5205 8.49565 19.597 8.3729 19.597 8.23844C19.597 8.10398 19.5205 7.98123 19.4 7.92201L17.2051 6.86597L10.7789 9.95403C10.5406 10.0689 10.2796 10.1288 10.0152 10.1288Z" fill="#4D4DA7"/>
<path d="M0.431419 4.71176C0.42987 4.84759 0.508031 4.9719 0.631299 5.02905L9.55684 9.31828C9.84624 9.45842 10.184 9.45842 10.4734 9.31828L19.3984 5.02905C19.5202 4.97017 19.5975 4.84691 19.5975 4.71176C19.5975 4.57661 19.5202 4.45334 19.3984 4.39447L10.4734 0.105234C10.184 -0.0350779 9.84624 -0.0350779 9.55684 0.105234L0.631299 4.39447C0.508031 4.45162 0.42987 4.57592 0.431419 4.71176Z" fill="#4D4DA7"/>
<path d="M0.629271 15.6066L9.55688 19.8972C9.84697 20.0343 10.1834 20.0343 10.4735 19.8972L19.3995 15.6066C19.5224 15.5488 19.6008 15.4252 19.6008 15.2893C19.6008 15.1535 19.5224 15.0299 19.3995 14.972L17.2048 13.9177L10.7782 17.0072C10.2953 17.2349 9.73592 17.2349 9.25318 17.0072L2.82554 13.9177L0.630304 14.972C0.508758 15.0309 0.431458 15.1542 0.431458 15.2893C0.431458 15.4245 0.508758 15.5478 0.630304 15.6066H0.629271Z" fill="#4D4DA7"/>
<path d="M10.4735 16.3707L19.4 12.0807C19.5216 12.0219 19.5989 11.8986 19.5989 11.7635C19.5989 11.6283 19.5216 11.505 19.4 11.4462L17.2048 10.3918L10.7782 13.4813C10.2953 13.7091 9.73592 13.7091 9.25318 13.4813L2.82554 10.3918L0.630304 11.4462C0.508758 11.505 0.431458 11.6283 0.431458 11.7635C0.431458 11.8986 0.508758 12.0219 0.630304 12.0807L9.55688 16.3714C9.84714 16.5082 10.1834 16.5079 10.4735 16.3707Z" fill="#4D4DA7"/>
</g>
<defs>
<clipPath id="clip0">
<rect width="20" height="20" fill="white"/>
</clipPath>
</defs>
</svg>
