<svg width="20" height="20" viewBox="0 0 20 20" fill="none" xmlns="http://www.w3.org/2000/svg">
<g clip-path="url(#clip0)">
<path d="M19.6641 8.94084L10.6908 0.764377C10.2969 0.405432 9.70295 0.405471 9.30924 0.764338L0.33586 8.94088C0.0203532 9.22838 -0.0838653 9.67135 0.070275 10.0694C0.224454 10.4674 0.599844 10.7245 1.02668 10.7245H2.45988V18.9167C2.45988 19.2415 2.72324 19.5049 3.04804 19.5049H7.96655C8.29135 19.5049 8.55471 19.2416 8.55471 18.9167V13.9427H11.4454V18.9168C11.4454 19.2416 11.7088 19.5049 12.0336 19.5049H16.9518C17.2766 19.5049 17.54 19.2416 17.54 18.9168V10.7245H18.9735C19.4003 10.7245 19.7757 10.4673 19.9299 10.0694C20.0838 9.67131 19.9796 9.22838 19.6641 8.94084Z" fill="#4D4DA7"/>
<path d="M17.3864 1.66913H13.4364L17.9745 5.79553V2.25725C17.9745 1.93245 17.7112 1.66913 17.3864 1.66913Z" fill="#4D4DA7"/>
</g>
<defs>
<clipPath id="clip0">
<rect width="20" height="20" fill="white"/>
</clipPath>
</defs>
</svg>
