<svg width="60" height="60" viewBox="0 0 60 60" fill="none" xmlns="http://www.w3.org/2000/svg">
<circle cx="30" cy="30" r="29.5" stroke="white"/>
<path d="M28.8779 35.3333H30.4791V36.3999H28.8779V35.3333Z" fill="white"/>
<path d="M26.7432 35.3333H27.8106V36.3999H26.7432V35.3333Z" fill="white"/>
<path d="M26.7432 37.4666H30.4793V38.5332H26.7432V37.4666Z" fill="white"/>
<path d="M29.9453 39.6001H33.6815V40.6668H29.9453V39.6001Z" fill="white"/>
<path d="M26.7432 39.6001H28.8781V40.6668H26.7432V39.6001Z" fill="white"/>
<path d="M29.4121 41.7334H32.0808V42.8001H29.4121V41.7334Z" fill="white"/>
<path d="M26.7432 41.7334H28.3444V42.8001H26.7432V41.7334Z" fill="white"/>
<path d="M19.4262 45.3105L19.4263 45.3104C19.5007 45.385 19.5956 45.4358 19.699 45.4563L22.3677 45.9897C22.4021 45.9965 22.4372 46 22.4724 46H37.4171C37.4522 46 37.4873 45.9965 37.5218 45.9897L40.1905 45.4563C40.2938 45.4358 40.3887 45.385 40.4631 45.3104L40.4632 45.3105L43.1696 42.6062C43.9727 41.8036 44.5257 40.7855 44.7615 39.6752C44.9973 38.5649 44.9058 37.4101 44.498 36.3507L42.8542 32.0801C42.616 31.4637 42.2534 30.903 41.789 30.4327C41.3246 29.9624 40.7683 29.5927 40.1547 29.3465L34.6649 27.1523C35.0709 26.3866 35.2829 25.5332 35.2821 24.6667V18.2667C35.2808 17.1355 34.8306 16.051 34.0301 15.2511C33.2296 14.4512 32.1443 14.0013 31.0122 14H28.8772C28.5027 14.0003 28.1348 14.099 27.8105 14.2862C27.4862 14.4734 27.2168 14.7426 27.0295 15.0667H26.7423C26.1762 15.0673 25.6336 15.2923 25.2333 15.6922C24.8331 16.0922 24.608 16.6344 24.6073 17.2V24.6667C24.6066 25.5332 24.8185 26.3866 25.2245 27.1523L19.7347 29.3465C19.1211 29.5927 18.5648 29.9624 18.1004 30.4327C17.636 30.903 17.2734 31.4637 17.0352 32.0801L15.3914 36.3507C14.9836 37.4101 14.8921 38.5649 15.1279 39.6752C15.3637 40.7855 15.9167 41.8036 16.7199 42.6062L19.4262 45.3105ZM22.5252 44.9333L20.4151 44.5116L20.6337 43.2007C20.6849 42.8932 20.825 42.6074 21.0366 42.3784C21.2482 42.1493 21.5222 41.9871 21.8249 41.9115L24.4377 41.2588C24.4398 41.2583 24.4421 41.2584 24.4441 41.2592C24.4462 41.2599 24.4479 41.2613 24.4492 41.2631C24.4505 41.2649 24.4511 41.267 24.4512 41.2692C24.4512 41.2714 24.4505 41.2735 24.4493 41.2754L23.6295 42.5042C23.5829 42.574 23.5534 42.6539 23.5435 42.7373C23.5337 42.8207 23.5436 42.9052 23.5726 42.984C23.6016 43.0628 23.6488 43.1337 23.7104 43.1908C23.772 43.248 23.8462 43.2898 23.927 43.3128L27.0011 44.1905C27.089 44.2156 27.1649 44.2715 27.2147 44.3481C27.2646 44.4247 27.285 44.5167 27.2724 44.6071C27.2597 44.6976 27.2147 44.7804 27.1457 44.8404C27.0768 44.9003 26.9884 44.9333 26.897 44.9333H22.5252ZM31.5459 34.2667V36.9333C31.5459 37.0748 31.6022 37.2104 31.7023 37.3105C31.8024 37.4105 31.9381 37.4667 32.0797 37.4667H34.7484V40.4509C34.7272 40.469 34.7064 40.4876 34.6866 40.5075C34.5108 40.6839 34.4014 40.9155 34.3769 41.1633C34.3524 41.411 34.4142 41.6596 34.5519 41.867L34.9662 42.4879L32.595 43.1649C32.2292 43.2692 31.9193 43.5133 31.7324 43.8443C31.5456 44.1753 31.4968 44.5666 31.5967 44.9333H28.2928C28.3926 44.5666 28.3438 44.1753 28.157 43.8443C27.9701 43.5132 27.6602 43.2691 27.2944 43.1648L24.9233 42.4879L25.3375 41.867C25.4752 41.6596 25.5371 41.411 25.5125 41.1632C25.488 40.9155 25.3785 40.6838 25.2028 40.5074C25.1829 40.4876 25.1622 40.469 25.1411 40.4509V34.8C25.1412 34.6586 25.1975 34.523 25.2976 34.4231C25.3976 34.3231 25.5333 34.2668 25.6748 34.2667H31.5459ZM27.276 18.2667C27.3752 18.2664 27.4734 18.2858 27.565 18.3237C27.6566 18.3616 27.7398 18.4173 27.8098 18.4876L28.6561 19.3333C28.9979 19.6748 29.4614 19.8667 29.9447 19.8667C30.428 19.8667 30.8916 19.6748 31.2333 19.3333L32.0797 18.4876C32.2212 18.3461 32.4132 18.2667 32.6134 18.2667C32.8136 18.2667 33.0056 18.3461 33.1472 18.4876L34.2146 19.5542V24.6667C34.2146 25.7983 33.7648 26.8835 32.964 27.6837C32.1632 28.4838 31.0772 28.9333 29.9447 28.9333C28.8123 28.9333 27.7262 28.4838 26.9254 27.6837C26.1247 26.8835 25.6748 25.7983 25.6748 24.6667V19.5542L26.7423 18.4876C26.8122 18.4173 26.8954 18.3616 26.987 18.3237C27.0786 18.2858 27.1769 18.2664 27.276 18.2667ZM32.6134 35.0209L33.9935 36.4H32.6134V35.0209ZM29.9447 30C30.3032 30.0001 30.6609 29.9642 31.0122 29.8927V29.9134L30.6275 31.0667H29.2619L28.8772 29.9134V29.8927C29.2286 29.9642 29.5862 30.0001 29.9447 30ZM29.2939 32.1333H30.5932L30.854 33.2H29.0271L29.2939 32.1333ZM37.3642 44.9333H32.9924C32.901 44.9333 32.8127 44.9003 32.7437 44.8404C32.6747 44.7805 32.6298 44.6976 32.6171 44.6072C32.6044 44.5167 32.6248 44.4247 32.6747 44.3482C32.7245 44.2716 32.8003 44.2156 32.8882 44.1905L35.9624 43.3128C36.0432 43.2898 36.1175 43.248 36.179 43.1908C36.2406 43.1337 36.2878 43.0628 36.3168 42.984C36.3458 42.9052 36.3558 42.8207 36.3459 42.7373C36.336 42.6539 36.3066 42.574 36.2599 42.5042L35.4401 41.2754C35.4387 41.2733 35.4381 41.2708 35.4384 41.2683C35.4386 41.2658 35.4397 41.2634 35.4415 41.2617C35.4425 41.2607 35.4437 41.2599 35.445 41.2593C35.4463 41.2588 35.4478 41.2585 35.4492 41.2585C35.45 41.2585 35.4509 41.2586 35.4518 41.2588L38.0646 41.9115C38.3672 41.9871 38.6412 42.1493 38.8528 42.3783C39.0644 42.6074 39.2044 42.8932 39.2556 43.2007L39.4743 44.5116L37.3642 44.9333ZM41.8579 32.463L43.5017 36.7337C43.8353 37.6005 43.9102 38.5453 43.7173 39.4538C43.5243 40.3622 43.0719 41.1952 42.4147 41.8519L40.4418 43.8233L40.3087 43.0253C40.2461 42.6511 40.1044 42.2945 39.8929 41.9795C39.6813 41.6644 39.4049 41.3981 39.0821 41.1983L39.7907 39.7823C39.9013 39.5599 39.9589 39.315 39.9589 39.0667C39.9589 38.8184 39.9013 38.5735 39.7907 38.3511L38.4282 35.6282L37.4734 36.1052L38.8359 38.8282C38.8728 38.9023 38.892 38.9839 38.892 39.0667C38.892 39.1495 38.8728 39.2311 38.8359 39.3052L38.08 40.8159L35.8158 40.2503V36.9333C35.8159 36.7919 35.7596 36.6562 35.6595 36.5562L33.7313 34.6295L36.1797 28.9065L39.7583 30.3368C40.2355 30.5283 40.6682 30.8159 41.0294 31.1817C41.3906 31.5475 41.6726 31.9836 41.8579 32.463ZM35.1882 28.5102L32.918 33.8168L32.4571 33.3562C32.357 33.2562 32.2212 33.2 32.0797 33.2H31.9529L31.5672 31.6228L32.0523 30.1687C32.0704 30.1143 32.0797 30.0573 32.0797 30V29.5533C32.8475 29.2168 33.5258 28.7051 34.06 28.0593L35.1882 28.5102ZM28.8772 15.0667H31.0122C31.8213 15.0677 32.6 15.3744 33.1923 15.9252C33.7845 16.476 34.1464 17.2302 34.2054 18.0365L33.902 17.7333C33.5603 17.3918 33.0967 17.2 32.6134 17.2C32.1301 17.2 31.6666 17.3918 31.3248 17.7333L30.4785 18.5791C30.3369 18.7205 30.1449 18.8 29.9447 18.8C29.7445 18.8 29.5525 18.7205 29.411 18.5791L28.5646 17.7333C28.3542 17.5222 28.0949 17.3661 27.8098 17.279V16.1333C27.8101 15.8505 27.9226 15.5794 28.1228 15.3794C28.3229 15.1795 28.5942 15.067 28.8772 15.0667ZM26.7423 16.1333V17.279C26.4571 17.3661 26.1978 17.5222 25.9874 17.7333L25.6748 18.0457V17.2C25.6751 16.9172 25.7877 16.6461 25.9878 16.4461C26.1879 16.2461 26.4593 16.1337 26.7423 16.1333ZM27.8098 29.5533V30C27.8098 30.0573 27.819 30.1143 27.8371 30.1687L28.3217 31.6214L27.9268 33.2H26.5699L24.6937 28.5132L25.8294 28.0593C26.3636 28.7051 27.0419 29.2168 27.8098 29.5533ZM16.3877 36.7337L18.0315 32.463C18.2168 31.9836 18.4988 31.5475 18.86 31.1817C19.2212 30.8159 19.6539 30.5283 20.1311 30.3368L23.7026 28.9093L25.4278 33.2191C25.0507 33.2784 24.7072 33.4702 24.459 33.76C24.2107 34.0498 24.0741 34.4186 24.0736 34.8V40.2503L21.8094 40.8159L21.0535 39.3051C21.0166 39.231 20.9975 39.1494 20.9975 39.0666C20.9975 38.9839 21.0166 38.9023 21.0535 38.8282L22.416 36.1052L21.4612 35.6282L20.0987 38.3511C19.9881 38.5734 19.9305 38.8183 19.9305 39.0666C19.9305 39.3149 19.9881 39.5599 20.0987 39.7822L20.8073 41.1983C20.4845 41.3981 20.2081 41.6644 19.9966 41.9795C19.785 42.2945 19.6433 42.6511 19.5808 43.0253L19.4477 43.8234L17.4747 41.8519C16.8176 41.1952 16.3651 40.3622 16.1722 39.4538C15.9792 38.5453 16.0541 37.6005 16.3877 36.7337H16.3877Z" fill="white"/>
<path d="M26.7432 20.9333H28.8781V22H26.7432V20.9333Z" fill="white"/>
<path d="M28.8779 26.8H29.4117C29.8362 26.7995 30.2432 26.6308 30.5434 26.3308C30.8436 26.0309 31.0124 25.6242 31.0129 25.2V24.1333H29.9454V25.2C29.9452 25.3414 29.889 25.4769 29.7889 25.5769C29.6888 25.6769 29.5532 25.7331 29.4117 25.7333H28.8779V26.8Z" fill="white"/>
<path d="M27.8091 23.6001C28.1039 23.6001 28.3429 23.3613 28.3429 23.0668C28.3429 22.7722 28.1039 22.5334 27.8091 22.5334C27.5144 22.5334 27.2754 22.7722 27.2754 23.0668C27.2754 23.3613 27.5144 23.6001 27.8091 23.6001Z" fill="white"/>
<path d="M31.0127 20.9333H33.1477V22H31.0127V20.9333Z" fill="white"/>
<path d="M32.0787 23.6001C32.3734 23.6001 32.6124 23.3613 32.6124 23.0668C32.6124 22.7722 32.3734 22.5334 32.0787 22.5334C31.7839 22.5334 31.5449 22.7722 31.5449 23.0668C31.5449 23.3613 31.7839 23.6001 32.0787 23.6001Z" fill="white"/>
</svg>
