<svg width="100" height="100" viewBox="0 0 100 100" fill="none" xmlns="http://www.w3.org/2000/svg">
<circle cx="50.2595" cy="50.2595" r="36.2595" fill="#CBAB97"/>
<path d="M48.2148 57H50.3164V58.4H48.2148V57Z" fill="white"/>
<path d="M45.4131 57H46.8142V58.4H45.4131V57Z" fill="white"/>
<path d="M45.4131 59.7998H50.3168V61.1998H45.4131V59.7998Z" fill="white"/>
<path d="M49.6152 62.6001H54.519V64.0001H49.6152V62.6001Z" fill="white"/>
<path d="M45.4131 62.6001H48.2152V64.0001H45.4131V62.6001Z" fill="white"/>
<path d="M48.916 65.3999H52.4187V66.7999H48.916V65.3999Z" fill="white"/>
<path d="M45.4131 65.3999H47.5147V66.7999H45.4131V65.3999Z" fill="white"/>
<path d="M35.8094 70.095L35.8095 70.0948C35.9072 70.1928 36.0317 70.2594 36.1674 70.2864L39.67 70.9864C39.7153 70.9954 39.7613 71 39.8075 71H59.4224C59.4685 71 59.5146 70.9954 59.5598 70.9864L63.0625 70.2864C63.1981 70.2594 63.3227 70.1928 63.4203 70.0948L63.4205 70.095L66.9725 66.5456C68.0267 65.4922 68.7525 64.1559 69.062 62.6987C69.3714 61.2414 69.2513 59.7258 68.7162 58.3354L66.5587 52.7301C66.246 51.9212 65.7701 51.1852 65.1606 50.5679C64.551 49.9507 63.8209 49.4654 63.0155 49.1423L55.8102 46.2623C56.3431 45.2574 56.6212 44.1373 56.6203 43V34.6C56.6186 33.1153 56.0276 31.6919 54.977 30.6421C53.9263 29.5922 52.5018 29.0017 51.016 29H48.2139C47.7223 29.0004 47.2394 29.1299 46.8138 29.3757C46.3881 29.6214 46.0346 29.9746 45.7887 30.4H45.4117C44.6688 30.4008 43.9566 30.6961 43.4313 31.221C42.9059 31.746 42.6104 32.4577 42.6096 33.2V43C42.6086 44.1373 42.8868 45.2574 43.4196 46.2623L36.2143 49.1423C35.409 49.4654 34.6788 49.9507 34.0693 50.5679C33.4597 51.1852 32.9838 51.9212 32.6712 52.7301L30.5137 58.3354C29.9785 59.7258 29.8584 61.2414 30.1679 62.6987C30.4774 64.1559 31.2032 65.4922 32.2573 66.5456L35.8094 70.095ZM39.8768 69.6L37.1073 69.0465L37.3943 67.3259C37.4615 66.9224 37.6453 66.5472 37.923 66.2466C38.2008 65.946 38.5604 65.733 38.9576 65.6339L42.387 64.7772C42.3898 64.7765 42.3927 64.7766 42.3954 64.7777C42.3981 64.7787 42.4004 64.7805 42.4021 64.7828C42.4037 64.7852 42.4046 64.788 42.4046 64.7908C42.4047 64.7937 42.4038 64.7965 42.4022 64.7989L41.3262 66.4117C41.265 66.5034 41.2264 66.6082 41.2134 66.7177C41.2004 66.8271 41.2135 66.9381 41.2516 67.0415C41.2896 67.145 41.3516 67.238 41.4324 67.313C41.5132 67.388 41.6106 67.4428 41.7167 67.4731L45.7515 68.625C45.8668 68.6579 45.9664 68.7314 46.0318 68.8319C46.0972 68.9324 46.1241 69.0531 46.1075 69.1719C46.0908 69.2906 46.0318 69.3993 45.9413 69.478C45.8507 69.5567 45.7348 69.6 45.6148 69.6H39.8768ZM51.7165 55.6V59.1C51.7165 59.2857 51.7903 59.4637 51.9217 59.595C52.0531 59.7262 52.2313 59.8 52.4171 59.8H55.9197V63.7168C55.8919 63.7405 55.8647 63.765 55.8387 63.791C55.608 64.0226 55.4644 64.3266 55.4322 64.6518C55.4 64.9769 55.4811 65.3032 55.6619 65.5755L56.2056 66.3904L53.0934 67.2789C52.6133 67.4158 52.2066 67.7362 51.9613 68.1706C51.7161 68.6051 51.652 69.1187 51.7831 69.6H47.4468C47.5778 69.1186 47.5138 68.6051 47.2685 68.1706C47.0232 67.7361 46.6165 67.4157 46.1364 67.2789L43.0243 66.3904L43.568 65.5755C43.7487 65.3032 43.8299 64.9769 43.7977 64.6518C43.7654 64.3266 43.6218 64.0225 43.3911 63.791C43.3651 63.765 43.3379 63.7405 43.3101 63.7168V56.3C43.3104 56.1144 43.3842 55.9365 43.5156 55.8053C43.6469 55.674 43.8249 55.6002 44.0107 55.6H51.7165ZM46.1123 34.6C46.2424 34.5996 46.3714 34.6251 46.4916 34.6748C46.6118 34.7246 46.721 34.7977 46.8128 34.8899L47.9236 36C48.3722 36.4482 48.9806 36.7 49.6149 36.7C50.2493 36.7 50.8577 36.4482 51.3062 36L52.4171 34.8899C52.6029 34.7043 52.8549 34.6 53.1176 34.6C53.3803 34.6 53.6323 34.7043 53.8181 34.8899L55.2192 36.2899V43C55.2192 44.4852 54.6288 45.9096 53.5777 46.9598C52.5267 48.01 51.1013 48.6 49.6149 48.6C48.1286 48.6 46.7031 48.01 45.6521 46.9598C44.6011 45.9096 44.0107 44.4852 44.0107 43V36.2899L45.4117 34.8899C45.5035 34.7977 45.6127 34.7246 45.7329 34.6748C45.8532 34.6251 45.9821 34.5996 46.1123 34.6ZM53.1176 56.5899L54.929 58.4H53.1176V56.5899ZM49.6149 50C50.0855 50.0002 50.5549 49.953 51.016 49.8591V49.8864L50.5111 51.4H48.7187L48.2139 49.8864V49.8591C48.675 49.953 49.1444 50.0002 49.6149 50ZM48.7608 52.8H50.466L50.8083 54.2H48.4105L48.7608 52.8ZM59.353 69.6H53.615C53.4951 69.6 53.3791 69.5567 53.2886 69.478C53.1981 69.3993 53.1391 69.2906 53.1224 69.1719C53.1058 69.0532 53.1326 68.9325 53.198 68.832C53.2634 68.7315 53.363 68.658 53.4783 68.625L57.5132 67.4731C57.6193 67.4428 57.7167 67.388 57.7975 67.313C57.8783 67.238 57.9403 67.145 57.9783 67.0415C58.0164 66.9381 58.0294 66.8271 58.0165 66.7177C58.0035 66.6083 57.9649 66.5034 57.9037 66.4117L56.8276 64.7989C56.8258 64.7962 56.825 64.7929 56.8253 64.7896C56.8257 64.7863 56.8272 64.7832 56.8295 64.7809C56.8308 64.7796 56.8324 64.7786 56.8341 64.7778C56.8358 64.7771 56.8377 64.7768 56.8395 64.7768C56.8407 64.7768 56.8418 64.7769 56.8429 64.7772L60.2722 65.6339C60.6695 65.733 61.0291 65.946 61.3068 66.2466C61.5845 66.5472 61.7683 66.9223 61.8355 67.3259L62.1225 69.0465L59.353 69.6ZM65.251 53.2327L67.4085 58.838C67.8464 59.9756 67.9446 61.2157 67.6914 62.4081C67.4382 63.6004 66.8443 64.6938 65.9818 65.5556L63.3923 68.1431L63.2176 67.0957C63.1356 66.6046 62.9495 66.1366 62.6719 65.723C62.3942 65.3095 62.0315 64.96 61.6078 64.6978L62.5378 62.8392C62.683 62.5474 62.7585 62.2259 62.7585 61.9C62.7585 61.5742 62.683 61.2527 62.5378 60.9609L60.7495 57.387L59.4964 58.013L61.2846 61.587C61.333 61.6843 61.3582 61.7914 61.3582 61.9C61.3582 62.0087 61.333 62.1158 61.2846 62.213L60.2925 64.1958L57.3208 63.4535V59.1C57.3208 58.9144 57.247 58.7363 57.1157 58.605L54.5849 56.0762L57.7983 48.5648L62.4953 50.4421C63.1216 50.6934 63.6895 51.0709 64.1636 51.551C64.6377 52.0311 65.0078 52.6035 65.251 53.2327ZM56.497 48.0446L53.5174 55.0095L52.9125 54.405C52.7811 54.2738 52.6029 54.2 52.4171 54.2H52.2506L51.7445 52.1299L52.3812 50.2214C52.4049 50.15 52.4171 50.0752 52.4171 50V49.4138C53.4249 48.972 54.3151 48.3004 55.0163 47.4528L56.497 48.0446ZM48.2139 30.4H51.016C52.0779 30.4014 53.1 30.8039 53.8773 31.5269C54.6547 32.2498 55.1297 33.2397 55.2071 34.2979L54.8089 33.9C54.3603 33.4518 53.752 33.2 53.1176 33.2C52.4832 33.2 51.8749 33.4518 51.4263 33.9L50.3155 35.0101C50.1297 35.1957 49.8777 35.3 49.6149 35.3C49.3522 35.3 49.1002 35.1957 48.9144 35.0101L47.8036 33.9C47.5274 33.6229 47.1871 33.418 46.8128 33.3037V31.8C46.8132 31.4288 46.961 31.073 47.2236 30.8105C47.4863 30.5481 47.8424 30.4004 48.2139 30.4ZM45.4117 31.8V33.3037C45.0374 33.418 44.6971 33.6229 44.421 33.9L44.0107 34.31V33.2C44.0111 32.8288 44.1588 32.473 44.4215 32.2105C44.6842 31.9481 45.0403 31.8004 45.4117 31.8ZM46.8128 49.4138V50C46.8128 50.0752 46.8249 50.15 46.8487 50.2214L47.4848 52.1281L46.9664 54.2H45.1855L42.723 48.0486L44.2136 47.4528C44.9148 48.3004 45.805 48.972 46.8128 49.4138ZM31.8214 58.838L33.9789 53.2327C34.222 52.6035 34.5922 52.0311 35.0663 51.551C35.5403 51.0709 36.1082 50.6934 36.7346 50.4421L41.4222 48.5685L43.6865 54.2251C43.1916 54.3029 42.7407 54.5547 42.4149 54.935C42.0891 55.3154 41.9097 55.7994 41.9091 56.3V63.4535L38.9373 64.1958L37.9452 62.213C37.8968 62.1157 37.8717 62.0086 37.8717 61.9C37.8717 61.7913 37.8968 61.6842 37.9452 61.587L39.7335 58.013L38.4804 57.387L36.6921 60.9608C36.5469 61.2526 36.4713 61.5741 36.4713 61.9C36.4713 62.2258 36.5469 62.5473 36.6921 62.8391L37.6221 64.6978C37.1984 64.96 36.8356 65.3095 36.558 65.723C36.2804 66.1366 36.0943 66.6046 36.0123 67.0957L35.8376 68.1431L33.2481 65.5556C32.3856 64.6938 31.7917 63.6004 31.5385 62.4081C31.2852 61.2157 31.3835 59.9756 31.8214 58.838H31.8214Z" fill="white"/>
<path d="M45.4131 38.1001H48.2152V39.5001H45.4131V38.1001Z" fill="white"/>
<path d="M48.2148 45.7998H48.9154C49.4726 45.7992 50.0067 45.5777 50.4007 45.184C50.7947 44.7903 51.0163 44.2566 51.017 43.6998V42.2998H49.6159V43.6998C49.6157 43.8854 49.5418 44.0633 49.4105 44.1945C49.2792 44.3258 49.1011 44.3996 48.9154 44.3998H48.2148V45.7998Z" fill="white"/>
<path d="M46.8119 41.6002C47.1988 41.6002 47.5124 41.2868 47.5124 40.9002C47.5124 40.5136 47.1988 40.2002 46.8119 40.2002C46.425 40.2002 46.1113 40.5136 46.1113 40.9002C46.1113 41.2868 46.425 41.6002 46.8119 41.6002Z" fill="white"/>
<path d="M51.0156 38.1001H53.8178V39.5001H51.0156V38.1001Z" fill="white"/>
<path d="M52.4154 41.6002C52.8023 41.6002 53.1159 41.2868 53.1159 40.9002C53.1159 40.5136 52.8023 40.2002 52.4154 40.2002C52.0285 40.2002 51.7148 40.5136 51.7148 40.9002C51.7148 41.2868 52.0285 41.6002 52.4154 41.6002Z" fill="white"/>
<circle cx="50" cy="50" r="49" stroke="url(#paint0_linear)" stroke-width="2"/>
<defs>
<linearGradient id="paint0_linear" x1="87.0229" y1="77.8626" x2="20.9924" y2="11.8321" gradientUnits="userSpaceOnUse">
<stop stop-color="#CBAB97"/>
<stop offset="1" stop-color="#CBAB97" stop-opacity="0"/>
</linearGradient>
</defs>
</svg>
