<svg width="60" height="60" viewBox="0 0 60 60" fill="none" xmlns="http://www.w3.org/2000/svg">
<circle cx="30" cy="30" r="29.5" stroke="white"/>
<g clip-path="url(#clip0)">
<path d="M29.0807 37.6506C28.841 37.4747 28.5036 37.5261 28.3274 37.7659L28.2609 37.8565C28.0849 38.0962 28.1361 38.4331 28.3755 38.6095C28.4717 38.6804 28.5838 38.7146 28.6948 38.7146C28.86 38.7146 29.023 38.6389 29.1286 38.4958L29.1961 38.404C29.3723 38.1641 29.3206 37.8268 29.0807 37.6506Z" fill="white"/>
<path d="M29.2212 42.7774L27.8352 40.2572L29.1292 38.4947C29.3055 38.2548 29.2537 37.9175 29.0138 37.7413C28.7739 37.5651 28.4366 37.6168 28.2605 37.8568L26.7627 39.8966C26.6385 40.0657 26.6238 40.2915 26.7249 40.4753L28.2768 43.2968V43.2967C28.375 43.4751 28.5593 43.576 28.7495 43.576C28.8374 43.576 28.9264 43.5545 29.0088 43.5092C29.2695 43.3658 29.3646 43.0382 29.2212 42.7774Z" fill="white"/>
<path d="M33.2376 39.8967L31.746 37.8652C31.6223 37.6968 31.4127 37.6149 31.2076 37.6555C31.0026 37.6958 30.8394 37.8511 30.7887 38.0537C30.7498 38.2094 30.7823 38.3741 30.8772 38.5034L32.1649 40.2573L30.7884 42.7604C30.7447 42.8399 30.7217 42.9296 30.7217 43.0204C30.7217 43.2664 30.8883 43.4811 31.1265 43.5423C31.1712 43.5539 31.2162 43.5594 31.2606 43.5594C31.4536 43.5594 31.6364 43.4553 31.7328 43.2802L33.2754 40.4755C33.3766 40.2916 33.3618 40.0658 33.2376 39.8967Z" fill="white"/>
<path d="M34.0923 31.4278C33.915 31.3347 33.7007 31.3474 33.5358 31.4611C33.2153 31.6819 32.9178 31.9159 32.6517 32.1564C31.2014 33.4675 29.8235 33.2901 29.7695 33.2824C29.737 33.2772 29.704 33.2749 29.6713 33.2759C29.0981 33.2906 28.0646 32.7669 26.9714 31.9082C26.8041 31.7769 26.6327 31.6518 26.4615 31.5363C26.2964 31.4247 26.083 31.4134 25.9071 31.507C25.7311 31.6005 25.6211 31.7835 25.6211 31.9829V33.8316C25.6211 33.9951 25.6955 34.1496 25.823 34.252C25.8381 34.2641 25.8537 34.2753 25.8699 34.2857L29.6913 36.8392C29.6919 36.8395 29.6924 36.84 29.6931 36.8405L29.7032 36.8472C29.7931 36.9067 29.8968 36.9368 30.0008 36.9368C30.0883 36.9368 30.1759 36.9156 30.2559 36.8728C30.2727 36.8638 30.2889 36.8539 30.3045 36.8433C30.3063 36.8421 30.3081 36.8409 30.31 36.8397C30.3121 36.8383 30.3142 36.8369 30.3163 36.8354L34.1286 34.288C34.1439 34.2783 34.1589 34.2678 34.1733 34.2566C34.3041 34.1545 34.3805 33.9978 34.3805 33.8318V31.9049C34.3805 31.7046 34.2696 31.521 34.0923 31.4278ZM33.3026 33.5434L30.0007 35.7497L26.6989 33.5433V33.0532C27.5029 33.6375 28.6856 34.3541 29.6496 34.354C29.6516 34.354 29.6538 34.354 29.6559 34.354C29.9796 34.3898 31.6302 34.4871 33.3027 33.0199V33.5434H33.3026Z" fill="white"/>
<path d="M30.5319 36.3092C30.4964 36.0954 30.3362 35.9238 30.1254 35.8735C29.9145 35.8235 29.6942 35.9041 29.5659 36.0788L28.3272 37.766C28.1511 38.006 28.2027 38.3433 28.4427 38.5194C28.5388 38.59 28.6505 38.624 28.7612 38.624C28.9269 38.624 29.0904 38.5477 29.1961 38.4038L30.4284 36.7255C30.4985 36.6339 30.5393 36.5198 30.5393 36.3979C30.5393 36.3683 30.5368 36.3384 30.5319 36.3092Z" fill="white"/>
<path d="M38.2107 18.9354C38.2 18.8509 37.9476 17.0289 36.2325 16.3102C36.2823 15.9902 36.2771 15.5789 36.074 15.1788C35.8009 14.6411 35.2621 14.2906 34.4724 14.1371C34.4385 14.1305 34.4041 14.1272 34.3696 14.1272H27.1363C24.1991 14.1272 21.8096 16.5167 21.8096 19.4539V22.2923C21.8096 23.0317 22.0616 23.7528 22.5192 24.3226C22.7461 24.6051 23.0255 25.0985 23.0676 25.8445C23.0841 26.1357 23.3279 26.3607 23.6209 26.3527C23.9125 26.3444 24.1446 26.1056 24.1446 25.814V22.1135C24.5105 20.6001 25.7595 20.3055 25.9742 20.2658H28.3139C28.5891 20.2658 28.8597 20.2237 29.1184 20.1408C29.5633 19.9981 30.2691 19.7355 30.783 19.5404C31.1267 19.4097 31.5074 19.4049 31.8546 19.5269L34.3594 20.4062C35.6116 20.8682 35.8351 21.9675 35.8628 22.1402V26.5813C35.8628 26.8634 36.0803 27.0974 36.3615 27.1184C36.3752 27.1194 36.3887 27.12 36.4021 27.12C36.6665 27.1199 36.8947 26.9262 36.9347 26.6608C36.9368 26.6469 37.152 25.257 37.8459 24.1441C38.0873 23.7566 38.215 23.3149 38.215 22.8667V19.0034C38.215 18.9807 38.2136 18.958 38.2107 18.9354ZM37.1371 22.8664C37.1371 23.1072 37.0692 23.346 36.9406 23.5584V22.1033C36.9406 22.0838 36.9395 22.0645 36.9374 22.0451C36.9289 21.9668 36.7062 20.12 34.7274 19.3931C34.725 19.3922 34.7226 19.3913 34.7202 19.3904L32.2116 18.5098C31.9287 18.4105 31.6328 18.3609 31.3371 18.3609C31.0191 18.3609 30.7013 18.4183 30.4002 18.5328C29.6807 18.8061 29.1236 19.0073 28.7892 19.1145C28.6371 19.1632 28.4772 19.188 28.3138 19.188H25.9306C25.9075 19.188 25.8843 19.1895 25.8614 19.1924C25.7702 19.2042 23.6207 19.5099 23.0797 21.9345C23.0711 21.973 23.0668 22.0124 23.0668 22.0518V23.161C22.9494 22.8898 22.8873 22.5936 22.8873 22.2923V19.4541C22.8873 17.1113 24.7934 15.2052 27.1361 15.2052H34.3152C34.6124 15.2685 34.9736 15.3984 35.1106 15.6627C35.2784 15.9863 35.0873 16.4318 35.0871 16.4322C35.0182 16.5788 35.019 16.7485 35.089 16.8945C35.1591 17.0405 35.2912 17.1472 35.4487 17.1851C36.8207 17.5154 37.1006 18.8313 37.1371 19.0442V22.8664H37.1371Z" fill="white"/>
<path d="M36.9371 22.0452C36.9286 21.967 36.706 20.1201 34.7271 19.3932C34.7247 19.3923 34.7223 19.3914 34.7199 19.3906L32.2113 18.5099C31.6242 18.3038 30.981 18.3121 30.3998 18.5328C29.6804 18.8061 29.1232 19.0073 28.7889 19.1145C28.6368 19.1633 28.4768 19.188 28.3135 19.188H25.9302C25.9071 19.188 25.884 19.1895 25.861 19.1924C25.7698 19.2042 23.6203 19.5099 23.0794 21.9345C23.0708 21.973 23.0664 22.0124 23.0664 22.0518V26.6847C23.0664 26.6887 23.0665 26.6926 23.0665 26.6966C23.0701 26.8576 23.1839 30.6581 25.8099 32.3962L25.8235 32.4058C25.8347 32.4138 25.846 32.4217 25.8578 32.4297C26.0075 32.5308 26.1579 32.6405 26.3049 32.7559C27.0699 33.3566 28.5116 34.354 29.6489 34.354C29.651 34.354 29.653 34.354 29.6551 34.354C29.7169 34.3608 29.8272 34.3699 29.9767 34.3699C30.6212 34.3699 31.9963 34.201 33.3737 32.9559C33.6049 32.747 33.8648 32.5427 34.1465 32.3486L34.1868 32.3204C34.2 32.3111 34.2131 32.3018 34.2267 32.2927C35.1026 31.7044 36.6197 30.1863 36.9382 26.6294C36.9396 26.6135 36.9403 26.5973 36.9403 26.5813V22.1034C36.9403 22.084 36.9392 22.0647 36.9371 22.0452ZM35.8624 26.5569C35.5687 29.767 34.201 31.0114 33.6256 31.3978C33.6052 31.4116 33.5851 31.4258 33.5649 31.44L33.535 31.461C33.2144 31.6818 32.917 31.9158 32.6509 32.1563C31.206 33.4625 29.8326 33.2912 29.7652 33.2818C29.7339 33.2771 29.7022 33.2751 29.6705 33.276C29.0973 33.2907 28.0638 32.7669 26.9705 31.9083C26.8033 31.7769 26.6319 31.6518 26.4609 31.5364L26.4477 31.5271C26.4347 31.5179 26.4218 31.5087 26.4066 31.4986C24.2876 30.0961 24.1489 26.8139 24.1442 26.6769V22.1135C24.5115 20.5946 25.7681 20.3034 25.973 20.2658H28.3135C28.5888 20.2658 28.8594 20.2238 29.1181 20.1409C29.5629 19.9982 30.2688 19.7356 30.7826 19.5404C31.1264 19.4097 31.507 19.405 31.8542 19.527L34.359 20.4063C35.6112 20.8682 35.8347 21.9675 35.8624 22.1402V26.5569H35.8624Z" fill="white"/>
<path d="M31.4537 29.0403C31.2349 28.8631 30.9139 28.8965 30.7364 29.1151C30.5304 29.369 30.2573 29.5087 29.9672 29.5087C29.6771 29.5087 29.404 29.3689 29.198 29.1151C29.0206 28.8966 28.6994 28.8631 28.4807 29.0403C28.262 29.2176 28.2285 29.5385 28.4059 29.757C28.8034 30.2469 29.3725 30.5278 29.9672 30.5278C30.5619 30.5278 31.1309 30.2469 31.5285 29.757C31.7059 29.5385 31.6724 29.2176 31.4537 29.0403Z" fill="white"/>
<path d="M30.4819 36.157C30.3979 35.989 30.2325 35.8769 30.0455 35.861C29.8587 35.8455 29.6765 35.9277 29.5654 36.0791L28.2745 37.8373C28.0985 38.0771 28.1499 38.4142 28.3895 38.5904C28.4856 38.6611 28.5975 38.6953 28.7084 38.6953C28.8737 38.6953 29.037 38.6194 29.1426 38.476L30.4336 36.7243C30.5019 36.6316 30.5388 36.5132 30.5388 36.3982C30.5388 36.3146 30.5192 36.2319 30.4819 36.157Z" fill="white"/>
<path d="M30.5164 44.8342C30.3139 44.6225 29.9794 44.6112 29.7633 44.809L29.6401 44.9217C29.4556 45.0903 29.4114 45.3638 29.5333 45.582L29.537 45.5888C29.6194 45.7363 29.7661 45.8367 29.9334 45.8599C29.9582 45.8633 29.983 45.865 30.0076 45.865C30.1495 45.865 30.2869 45.8089 30.3887 45.7071L30.508 45.5876C30.7152 45.3805 30.7189 45.0458 30.5164 44.8342Z" fill="white"/>
<path d="M30.3598 44.9216L30.2366 44.8089C30.0205 44.6112 29.6859 44.6225 29.4835 44.8342C29.2809 45.046 29.2847 45.3807 29.4919 45.5878L29.6114 45.7072C29.7132 45.809 29.8505 45.865 29.9924 45.865C30.0177 45.865 30.0432 45.8633 30.0687 45.8596C30.2365 45.8357 30.3833 45.734 30.4649 45.5853L30.4687 45.5785C30.5881 45.3607 30.5432 45.0893 30.3598 44.9216Z" fill="white"/>
<path d="M30.3686 44.9301L30.3679 44.9295C30.2846 44.8517 30.177 44.8004 30.0584 44.7874C29.8996 44.7701 29.7449 44.8239 29.6324 44.9286L29.6308 44.9301C29.5218 45.0295 29.4584 45.1693 29.4552 45.3167C29.452 45.4642 29.5094 45.6065 29.614 45.7104L29.6196 45.7161C29.7248 45.8206 29.8622 45.8729 29.9996 45.8729C30.1376 45.8729 30.2755 45.8202 30.3806 45.7151L30.3863 45.7094C30.4904 45.6053 30.5474 45.4632 30.544 45.316C30.5408 45.1688 30.4773 45.0294 30.3686 44.9301Z" fill="white"/>
<path d="M30.1749 35.8763C29.9518 35.8048 29.7068 35.8876 29.5709 36.0788C29.4189 36.2928 29.444 36.5845 29.6292 36.7706C29.7334 36.8753 29.8718 36.9289 30.0111 36.9289C30.1194 36.9289 30.2282 36.8966 30.3221 36.8305C30.4655 36.7295 30.5509 36.5652 30.5509 36.3897V36.3884C30.5509 36.1539 30.3984 35.9475 30.1749 35.8763Z" fill="white"/>
<path d="M30.4378 36.0744L30.4332 36.0682C30.2949 35.881 30.0521 35.8039 29.8312 35.8767C29.6102 35.9495 29.4609 36.1559 29.4609 36.3885V36.3977C29.4609 36.5962 29.5723 36.777 29.7471 36.8709C29.8263 36.9134 29.9137 36.9344 30.001 36.9344C30.1063 36.9344 30.2114 36.9039 30.3018 36.844C30.425 36.7624 30.5094 36.6338 30.5351 36.4883C30.5608 36.3429 30.5256 36.1932 30.4378 36.0744Z" fill="white"/>
<path d="M36.4109 34.3813C36.355 34.2337 36.2373 34.1181 36.0888 34.0649L34.0224 33.3242C34.0057 33.3182 33.9883 33.3128 33.971 33.3086C33.8235 33.2717 33.6673 33.2988 33.5409 33.3833L29.7123 35.9417C29.7113 35.9424 29.7101 35.943 29.7091 35.9438L30.0097 36.3908L29.7024 35.9483C29.5901 36.0226 29.5096 36.1365 29.477 36.2671C29.4591 36.3388 29.4561 36.4137 29.4683 36.4866C29.4822 36.5699 29.5154 36.6488 29.5655 36.717L32.3685 40.5346C32.4704 40.6734 32.632 40.7546 32.8028 40.7546C32.8145 40.7546 32.8263 40.7542 32.8381 40.7534C33.0217 40.7413 33.1864 40.6366 33.2751 40.4753L36.379 34.8319C36.4551 34.6936 36.4668 34.5288 36.4109 34.3813ZM32.7376 39.2161L30.7675 36.5329L33.914 34.4303L35.1301 34.8663L32.7376 39.2161Z" fill="white"/>
<path d="M30.5316 36.305C30.5062 36.1603 30.423 36.0323 30.301 35.9504L26.4596 33.3835C26.3373 33.3017 26.1866 33.2737 26.043 33.3056C26.0209 33.3104 25.9993 33.3168 25.978 33.3244L23.9117 34.0651C23.7632 34.1183 23.6454 34.234 23.5896 34.3815C23.5337 34.5291 23.5453 34.6938 23.6214 34.8321L26.7253 40.4755C26.8139 40.6367 26.9787 40.7415 27.1623 40.7536C27.174 40.7543 27.1858 40.7547 27.1975 40.7547C27.3683 40.7547 27.5299 40.6735 27.6319 40.5346L29.1297 38.4948C29.1309 38.4932 29.132 38.4916 29.1332 38.4899L30.4351 36.7168C30.522 36.5984 30.5568 36.4497 30.5316 36.305ZM28.261 37.8567C28.2597 37.8584 28.2584 37.8602 28.2571 37.8619L27.2627 39.2163L24.8702 34.8664L26.0863 34.4305L29.2328 36.533L28.261 37.8567Z" fill="white"/>
<path d="M45.9099 43.5815L45.2147 39.3834C44.9956 38.0604 44.0762 36.955 42.8151 36.4989L36.0893 34.0656C35.882 33.9906 35.6502 34.0494 35.5036 34.2139C35.3571 34.3784 35.3254 34.6156 35.4238 34.8129L36.828 37.629L35.4501 37.6502C35.263 37.6532 35.0907 37.7528 34.9952 37.9136C34.8996 38.0745 34.8942 38.2734 34.981 38.4391L35.5461 39.5182L29.7624 44.8092C29.7565 44.8146 29.7507 44.8201 29.745 44.8257L29.6256 44.9452C29.4565 45.1144 29.419 45.3748 29.5339 45.5848L29.5381 45.5924C29.6327 45.7652 29.814 45.8727 30.011 45.8727H43.967C44.5467 45.8727 45.0942 45.6191 45.4691 45.177C45.844 44.7348 46.0047 44.1533 45.9099 43.5815ZM44.6472 44.4799C44.4773 44.6801 44.2294 44.7949 43.967 44.7949H31.3747L36.58 40.0333C36.7606 39.8683 36.8073 39.6024 36.6937 39.3857L36.3421 38.7144L37.7009 38.6935C37.8861 38.6907 38.0567 38.5929 38.1531 38.4347C38.2492 38.2764 38.2575 38.0799 38.1749 37.9141L36.9897 35.5374L42.4487 37.5123C43.3436 37.8361 43.9962 38.6205 44.1516 39.5594L44.8468 43.7575C44.8468 43.7576 44.8468 43.7576 44.8468 43.7576C44.8897 44.0165 44.8169 44.2797 44.6472 44.4799Z" fill="white"/>
<path d="M30.3734 44.9343L30.3671 44.9287C30.1538 44.7355 29.8262 44.7441 29.6233 44.9482L29.6177 44.9539C29.4642 45.1083 29.4187 45.3399 29.5022 45.5408C29.5859 45.7419 29.7822 45.8728 29.9999 45.8728H30.0117C30.2345 45.8728 30.4344 45.7356 30.5145 45.5277C30.5947 45.3197 30.5386 45.0839 30.3734 44.9343Z" fill="white"/>
<path d="M30.3563 44.9189C30.234 44.8087 30.0681 44.7605 29.9056 44.7882C29.7433 44.8156 29.6025 44.9159 29.5233 45.0602L29.5195 45.067C29.4059 45.2742 29.4405 45.5311 29.6048 45.701L29.6067 45.703C29.7123 45.8121 29.853 45.8671 29.9941 45.8671C30.1239 45.8671 30.254 45.8205 30.3571 45.7263L30.3628 45.7212C30.4117 45.6766 30.4521 45.6232 30.4817 45.5639C30.5902 45.3471 30.5366 45.081 30.3563 44.9189Z" fill="white"/>
<path d="M30.3799 44.9518L30.3777 44.9494C30.3763 44.948 30.3748 44.9465 30.3734 44.9452L30.2539 44.8257C30.2483 44.8201 30.2425 44.8145 30.2366 44.8092L24.4528 39.5183L25.0181 38.4392C25.1049 38.2735 25.0995 38.0746 25.0039 37.9137C24.9083 37.7529 24.7361 37.6532 24.549 37.6503L23.171 37.6291L24.5752 34.813C24.6736 34.6158 24.6419 34.3785 24.4954 34.214C24.3489 34.0494 24.1168 33.9906 23.9097 34.0657L17.184 36.499C15.9229 36.955 15.0034 38.0604 14.7843 39.3835L14.0891 43.5816C13.9944 44.1536 14.1551 44.735 14.5301 45.1771C14.905 45.6192 15.4526 45.8728 16.0322 45.8728H30C30.2183 45.8728 30.415 45.7411 30.4982 45.5394C30.5814 45.3377 30.5347 45.1056 30.3799 44.9518ZM16.0322 44.795C15.7698 44.795 15.5219 44.6802 15.3521 44.48C15.1824 44.2798 15.1097 44.0165 15.1526 43.7576L15.8478 39.5594C16.0032 38.6204 16.6557 37.8361 17.5507 37.5124L23.0096 35.5375L21.8245 37.914C21.7418 38.0798 21.75 38.2763 21.8463 38.4346C21.9425 38.5929 22.1133 38.6906 22.2985 38.6934L23.6573 38.7144L23.3057 39.3857C23.1922 39.6023 23.2389 39.8683 23.4193 40.0333L28.6246 44.795H16.0322Z" fill="white"/>
<path d="M31.8338 38.3148C31.8728 38.1592 31.8403 37.9944 31.7454 37.8651L30.4339 36.079C30.2961 35.8912 30.053 35.8166 29.8318 35.8892C29.7123 35.9284 29.6139 36.0074 29.5484 36.1085L28.2608 37.8554C28.2424 37.8803 28.226 37.9071 28.2122 37.9349C28.1239 38.1114 28.1392 38.3219 28.2519 38.4838L28.8002 39.2712L28.2161 42.9528C28.1973 43.071 28.2185 43.1921 28.2762 43.297L29.5274 45.5719C29.6221 45.7441 29.8031 45.8511 29.9996 45.8511C30.1961 45.8511 30.3771 45.7441 30.4718 45.5719L31.7324 43.2801C31.7761 43.2005 31.799 43.1112 31.799 43.0204V43.0201C31.799 42.9919 31.7967 42.9636 31.7924 42.9356L31.211 39.2712L31.7533 38.4925C31.7906 38.4386 31.818 38.3783 31.8338 38.3148ZM29.9996 44.194L29.3095 42.9393L29.8987 39.2258C29.9205 39.0882 29.8882 38.9476 29.8087 38.8334L29.357 38.1848L30.0011 37.3109L30.6486 38.1927L30.2024 38.8334C30.1229 38.9476 30.0906 39.0882 30.1124 39.2258L30.6989 42.9224L29.9996 44.194Z" fill="white"/>
<circle cx="26.8694" cy="25.1619" r="0.853795" fill="white"/>
<ellipse cx="33.1302" cy="25.1619" rx="0.853794" ry="0.853795" fill="white"/>
<rect x="29.4307" y="24.8772" width="1.13839" height="2.84598" rx="0.569195" fill="white"/>
<rect x="27.7236" y="22.6003" width="0.569198" height="1.70759" rx="0.284599" transform="rotate(90 27.7236 22.6003)" fill="white"/>
<rect x="33.9844" y="22.6003" width="0.569198" height="1.70759" rx="0.284599" transform="rotate(90 33.9844 22.6003)" fill="white"/>
</g>
<defs>
<clipPath id="clip0">
<rect width="31.875" height="31.875" fill="white" transform="translate(14.0625 14.0625)"/>
</clipPath>
</defs>
</svg>
