<svg width="60" height="60" viewBox="0 0 60 60" fill="none" xmlns="http://www.w3.org/2000/svg">
<circle cx="30" cy="30" r="29.5" stroke="white"/>
<path fill-rule="evenodd" clip-rule="evenodd" d="M46.524 35.221L42.5133 33.618C42.4947 33.6106 42.4774 33.6014 42.46 33.5923L42.4512 33.5876C45.2213 32.9578 46.5333 31.9045 46.5915 31.8568C46.73 31.7434 46.7991 31.5659 46.7738 31.3888C46.768 31.3483 46.194 27.2872 46.194 23.2787C46.194 19.4515 43.078 16.3379 39.248 16.3379C35.418 16.3379 32.3021 19.4515 32.3021 23.2787C32.3021 24.3273 32.2544 25.6099 32.1769 26.824L31.0593 27.3824L27.7787 25.7435C27.7726 25.7404 27.7662 25.7379 27.7599 25.7354L27.7498 25.7313C27.9058 25.2768 28.0079 24.7976 28.0453 24.3003C28.7316 24.0884 29.2316 23.4486 29.2316 22.6942C29.2316 22.1861 29.0044 21.7304 28.6466 21.4219V18.0184C28.6466 17.0781 28.1712 16.1984 27.3915 15.6698C27.1274 14.689 26.2455 14 25.2101 14H20.5308C17.9909 14 15.9244 16.0648 15.9244 18.6028V21.4219C15.5667 21.7302 15.3395 22.1861 15.3395 22.6941C15.3395 23.4485 15.8395 24.0884 16.5257 24.3002C16.655 26.0176 17.5408 27.5266 18.849 28.4977V29.9116L14.6153 31.1808C13.6491 31.4705 13 32.3422 13 33.3502V39.0592C13 39.3417 13.2292 39.5708 13.5119 39.5708H13.5849V45.4884C13.5849 45.7709 13.8141 45.9999 14.0969 45.9999C14.3796 45.9999 14.6088 45.7709 14.6088 45.4884V39.5708H16.5095V45.4884C16.5095 45.7709 16.7387 45.9999 17.0214 45.9999C17.3042 45.9999 17.5334 45.7709 17.5334 45.4884V36.6678C17.5334 36.2191 17.4017 35.7846 17.1527 35.4114L16.2776 34.0998C16.1208 33.8647 15.8029 33.8012 15.5677 33.9578C15.3324 34.1145 15.2689 34.4322 15.4257 34.6673L16.3008 35.979C16.4373 36.1836 16.5096 36.4218 16.5096 36.6678V38.5477H14.0969H14.0239V33.3502C14.0239 32.7975 14.3798 32.3196 14.9096 32.1607L16.6671 31.6339C17.2791 34.1945 19.6034 36.064 22.2857 36.064C23.2493 36.064 24.1851 35.8265 25.0232 35.3747C25.3294 35.7922 25.8234 36.064 26.38 36.064H26.453V36.1369C26.453 37.8518 27.3971 39.3496 28.7926 40.1415V40.9758C28.7926 41.0072 28.7726 41.035 28.7427 41.045L26.8331 41.6811C25.906 41.9899 25.2832 42.8534 25.2832 43.8298V45.4884C25.2832 45.7709 25.5124 45.9999 25.7951 45.9999C26.0778 45.9999 26.307 45.7709 26.307 45.4884V43.8298C26.307 43.2945 26.6485 42.821 27.1568 42.6518L27.7184 42.4647C28.4613 43.5718 29.7108 44.2466 31.0593 44.2466C32.4092 44.2466 33.6575 43.5722 34.4003 42.4647L34.9617 42.6518C35.47 42.8211 35.8115 43.2945 35.8115 43.8298V45.4884C35.8115 45.7709 36.0407 45.9999 36.3234 45.9999C36.6062 45.9999 36.8354 45.7709 36.8354 45.4884V43.8298C36.8354 42.8534 36.2125 41.9899 35.2855 41.6812L33.3758 41.0451C33.346 41.0351 33.3259 41.0074 33.3259 40.9759V40.1415C34.3707 39.5487 35.1616 38.5599 35.4933 37.3804C36.4608 38.3919 37.812 38.9864 39.2479 38.9864C41.515 38.9864 43.5041 37.5221 44.1893 35.39L46.1435 36.171C46.6181 36.3607 46.9247 36.8133 46.9247 37.324V39.7167H46.8518H45.0241V39.0593C45.0241 38.7768 44.7948 38.5477 44.5121 38.5477C44.2294 38.5477 44.0002 38.7768 44.0002 39.0593V45.4884C44.0002 45.771 44.2294 46 44.5121 46C44.7948 46 45.0241 45.771 45.0241 45.4884V40.7398H46.3398V45.4884C46.3398 45.771 46.569 46 46.8518 46C47.1345 46 47.3637 45.771 47.3637 45.4884V40.7398H47.4367C47.5725 40.7398 47.7026 40.6859 47.7987 40.59C47.8947 40.494 47.9486 40.364 47.9486 40.2282V37.324C47.9488 36.3924 47.3896 35.567 46.524 35.221ZM33.326 23.2786C33.326 20.0156 35.9827 17.361 39.2481 17.361C42.5136 17.361 45.1702 20.0156 45.1702 23.2786C45.1702 26.7137 45.5842 30.1862 45.7187 31.2233C45.26 31.5232 44.0854 32.1838 42.0998 32.6178V31.8038C42.3717 31.6498 42.632 31.474 42.8768 31.2763C43.8842 30.4627 44.5961 29.3231 44.8811 28.0677C44.9761 27.6494 45.0243 27.218 45.0243 26.7855C45.0243 23.8941 42.9317 23.479 40.908 23.0775L40.9079 23.0775C39.6202 22.8221 38.2887 22.5579 37.2283 21.7103C37.0747 21.5875 36.8642 21.5635 36.6868 21.6487C36.5094 21.7339 36.3966 21.9131 36.3966 22.1098C36.3966 22.1234 36.3743 23.4694 34.4447 23.9514C34.1704 24.0199 34.0036 24.2977 34.0722 24.5718C34.1408 24.8459 34.4188 25.0124 34.6931 24.944C36.3081 24.5406 36.9669 23.6353 37.2356 22.9551C38.3456 23.6124 39.589 23.859 40.7081 24.081L40.7086 24.0811C42.8716 24.5102 44.0004 24.8254 44.0004 26.7856C44.0004 27.142 43.9608 27.4972 43.8826 27.8414C43.6481 28.8737 43.0624 29.811 42.2331 30.4808C41.3799 31.1699 40.3477 31.5342 39.2481 31.5342C38.2458 31.5342 37.2919 31.227 36.4823 30.6464C36.1858 29.8376 35.7094 29.0975 35.0808 28.4877V26.2011C35.0808 26.0237 34.9889 25.8591 34.838 25.7659C34.687 25.6728 34.4987 25.6642 34.3399 25.7435L33.2346 26.2958C33.2952 25.2304 33.326 24.2175 33.326 23.2786ZM34.0569 27.0286V28.88L32.204 27.9544L34.0569 27.0286ZM28.0618 27.0286L29.9146 27.9544L28.0618 28.88V27.0286ZM25.2832 32.63V33.1159C24.9166 33.4322 24.6982 33.895 24.6982 34.3834C23.9691 34.8138 23.1408 35.0408 22.2856 35.0408C20.0587 35.0408 18.1321 33.4749 17.6501 31.3392L18.9149 30.9601C19.2269 32.5348 20.6195 33.7261 22.2857 33.7261C23.6087 33.7261 24.7588 32.9746 25.3328 31.8768C25.3 32.1252 25.2832 32.3768 25.2832 32.63ZM19.873 30.2913V29.1064C20.6077 29.4454 21.4249 29.6348 22.2857 29.6348C23.1464 29.6348 23.9637 29.4453 24.6983 29.1064V30.2921C24.6983 31.6214 23.6161 32.7029 22.2857 32.7029C20.9576 32.7029 19.8768 31.6249 19.8732 30.2986L19.873 30.2913ZM22.2857 28.6117C19.6652 28.6117 17.5334 26.4815 17.5334 23.8631C17.5334 23.5806 17.3042 23.3515 17.0214 23.3515C16.6587 23.3515 16.3636 23.0566 16.3636 22.6941C16.3636 22.3317 16.6586 22.0367 17.0214 22.0367H18.1913C18.4116 22.0367 18.6072 21.8959 18.6769 21.687L19.1468 20.2784C20.3233 20.2518 23.9703 20.0866 26.024 19.0604C26.2769 18.9341 26.3795 18.6269 26.253 18.3741C26.1266 18.1214 25.8191 18.019 25.5662 18.1454C23.3627 19.2462 18.8216 19.2603 18.776 19.2603C18.5557 19.2604 18.3601 19.4012 18.2904 19.6101L17.8223 21.0137H17.0214C16.997 21.0137 16.9727 21.0145 16.9485 21.0155V18.6028C16.9485 16.629 18.5556 15.0231 20.5309 15.0231H25.2102C25.8216 15.0231 26.3352 15.4634 26.4316 16.0699C26.4561 16.224 26.5497 16.3585 26.6857 16.4352C27.2638 16.761 27.6229 17.3675 27.6229 18.0183V21.0154C27.5986 21.0143 27.5744 21.0136 27.5499 21.0136H26.965C26.6823 21.0136 26.4531 21.2426 26.4531 21.5251C26.4531 21.8076 26.6823 22.0367 26.965 22.0367H27.5499C27.9126 22.0367 28.2078 22.3315 28.2078 22.6941C28.2078 23.0566 27.9127 23.3514 27.5499 23.3514C27.2672 23.3514 27.038 23.5805 27.038 23.863C27.038 26.4814 24.9062 28.6117 22.2857 28.6117ZM25.7221 30.2922V28.4977C26.2314 28.1196 26.6765 27.6604 27.0379 27.1385V28.4877C26.4646 29.0438 26.0177 29.7082 25.7185 30.4345C25.7205 30.3872 25.7221 30.3399 25.7221 30.2922ZM33.3787 42.1244C32.8151 42.8124 31.9684 43.2234 31.0593 43.2234C30.1513 43.2234 29.3041 42.8121 28.7403 42.1243L29.0666 42.0157C29.5152 41.8663 29.8166 41.4484 29.8166 40.9759V40.5682C30.2122 40.6791 30.6288 40.7398 31.0594 40.7398C31.4901 40.7398 31.9066 40.6791 32.3022 40.5682V40.9759C32.3021 41.4483 32.6035 41.8662 33.0522 42.0156L33.3787 42.1244ZM35.1538 35.0408C34.8711 35.0408 34.6419 35.2699 34.6419 35.5524V36.061V36.0743V36.1369C34.6418 38.1107 33.0347 39.7166 31.0593 39.7166C29.084 39.7166 27.4769 38.1107 27.4769 36.1369V35.5524C27.4769 35.2699 27.2477 35.0408 26.965 35.0408H26.3801C26.0174 35.0408 25.7222 34.746 25.7222 34.3835C25.7222 34.1502 25.8457 33.9391 26.0526 33.8188C26.0989 33.7919 26.1391 33.7579 26.1739 33.7194C27.4394 33.6828 31.5417 33.4448 34.2379 31.9053C34.4834 31.7651 34.5687 31.4527 34.4284 31.2073C34.2881 30.962 33.9753 30.8768 33.7299 31.0169C31.368 32.3655 27.6566 32.6356 26.3071 32.6895V32.63C26.3071 31.6786 26.5954 30.7572 27.1179 29.9804C27.1588 30.0451 27.2135 30.1013 27.2808 30.1429C27.363 30.1936 27.4563 30.2193 27.5499 30.2193C27.6281 30.2193 27.7066 30.2013 27.7789 30.1652L31.0594 28.5262L34.34 30.1652C34.4122 30.2013 34.4907 30.2193 34.5689 30.2193C34.6625 30.2193 34.7559 30.1936 34.838 30.1429C34.9053 30.1013 34.96 30.0451 35.0008 29.9804C35.5233 30.7572 35.8116 31.6786 35.8116 32.63V33.3766C35.8116 33.5588 35.9085 33.7272 36.0661 33.8188C36.2731 33.9391 36.3966 34.1502 36.3966 34.3835C36.3966 34.7459 36.1015 35.0408 35.7387 35.0408H35.1538ZM39.2481 37.9632C37.8308 37.9632 36.5159 37.2422 35.7504 36.0637C36.6723 36.0573 37.4204 35.3062 37.4204 34.3835C37.4204 33.8952 37.2021 33.4322 36.8355 33.116V32.6301C36.8355 32.4242 36.8244 32.2194 36.8026 32.0166C37.5617 32.3722 38.3905 32.5571 39.2481 32.5571C39.8724 32.5571 40.4897 32.4538 41.0759 32.2584V33.0076C41.0759 33.6987 41.4908 34.3112 42.133 34.5679L43.237 35.0091C42.7079 36.7571 41.0922 37.9632 39.2481 37.9632ZM19.433 22.6941C19.433 22.4116 19.6623 22.1826 19.945 22.1826C20.2277 22.1826 20.4569 22.4116 20.4569 22.6941V23.2786C20.4569 23.5611 20.2277 23.7902 19.945 23.7902C19.6623 23.7902 19.433 23.5611 19.433 23.2786V22.6941ZM23.0567 25.2943C23.2348 25.0748 23.5572 25.0412 23.7768 25.2192C23.9963 25.3971 24.03 25.7193 23.8519 25.9387C23.4527 26.4305 22.8815 26.7125 22.2845 26.7125C21.6875 26.7125 21.1161 26.4305 20.717 25.9387C20.5389 25.7193 20.5726 25.3971 20.7922 25.2192C21.0117 25.0413 21.3342 25.0748 21.5122 25.2943C21.7191 25.549 21.9933 25.6894 22.2845 25.6894C22.5757 25.6894 22.8499 25.5491 23.0567 25.2943ZM24.625 22.1826C24.3423 22.1826 24.1131 22.4116 24.1131 22.6941V23.2786C24.1131 23.5611 24.3422 23.7902 24.625 23.7902C24.9078 23.7902 25.137 23.5611 25.137 23.2786V22.6941C25.137 22.4116 24.9078 22.1826 24.625 22.1826ZM40.0205 28.2165C40.1986 27.9971 40.521 27.9635 40.7406 28.1414C40.9602 28.3194 40.9937 28.6415 40.8156 28.861C40.4165 29.3527 39.8453 29.6348 39.2483 29.6348C38.6513 29.6348 38.0799 29.3528 37.6809 28.861C37.5028 28.6415 37.5364 28.3194 37.756 28.1414C37.9756 27.9635 38.298 27.9971 38.4761 28.2165C38.6829 28.4713 38.9571 28.6117 39.2483 28.6117C39.5394 28.6117 39.8137 28.4713 40.0205 28.2165ZM36.9077 25.1049C36.625 25.1049 36.3958 25.334 36.3958 25.6165V26.201C36.3958 26.4835 36.625 26.7125 36.9077 26.7125C37.1905 26.7125 37.4197 26.4835 37.4197 26.201V25.6165C37.4197 25.334 37.1905 25.1049 36.9077 25.1049ZM41.0758 25.6165C41.0758 25.334 41.305 25.1049 41.5878 25.1049C41.8705 25.1049 42.0997 25.334 42.0997 25.6165V26.201C42.0997 26.4835 41.8705 26.7125 41.5878 26.7125C41.305 26.7125 41.0758 26.4835 41.0758 26.201V25.6165ZM31.833 36.9836C32.0111 36.7641 32.3335 36.7305 32.5531 36.9085C32.7726 37.0864 32.8063 37.4086 32.6283 37.6281C32.2291 38.1198 31.6578 38.4018 31.0608 38.4018C30.4638 38.4018 29.8925 38.1197 29.4934 37.628C29.3153 37.4086 29.3489 37.0864 29.5685 36.9085C29.788 36.7305 30.1105 36.7642 30.2886 36.9836C30.4954 37.2384 30.7697 37.3787 31.0608 37.3787C31.3519 37.3787 31.6261 37.2384 31.833 36.9836ZM29.3149 35.4818C29.5977 35.4818 29.8269 35.2527 29.8269 34.9702C29.8269 34.6877 29.5977 34.4587 29.3149 34.4587C29.0322 34.4587 28.803 34.6877 28.803 34.9702C28.803 35.2527 29.0322 35.4818 29.3149 35.4818ZM33.3077 34.9702C33.3077 35.2527 33.0785 35.4818 32.7957 35.4818C32.513 35.4818 32.2838 35.2527 32.2838 34.9702C32.2838 34.6877 32.513 34.4587 32.7957 34.4587C33.0785 34.4587 33.3077 34.6877 33.3077 34.9702Z" fill="white"/>
</svg>
