<svg width="100" height="100" viewBox="0 0 100 100" fill="none" xmlns="http://www.w3.org/2000/svg">
<circle cx="49.9998" cy="50" r="36.2595" fill="#CBAB97"/>
<path fill-rule="evenodd" clip-rule="evenodd" d="M71.5007 57.3563L66.1429 55.2148C66.1181 55.2049 66.0949 55.1927 66.0718 55.1804L66.0717 55.1804L66.0599 55.1742C69.7605 54.3328 71.5131 52.9258 71.5909 52.8621C71.7759 52.7106 71.8683 52.4735 71.8345 52.2369C71.8267 52.1827 71.0599 46.7576 71.0599 41.4027C71.0599 36.2902 66.8974 32.1308 61.7809 32.1308C56.6644 32.1308 52.502 36.2901 52.502 41.4027C52.502 42.8036 52.4383 44.5169 52.3347 46.1389L50.8417 46.8849L46.4593 44.6954C46.4511 44.6913 46.4427 44.688 46.4342 44.6846L46.4342 44.6846L46.4207 44.6791C46.6291 44.072 46.7655 43.4318 46.8155 42.7675C47.7322 42.4845 48.4001 41.6297 48.4001 40.6219C48.4001 39.9432 48.0967 39.3344 47.6188 38.9223V34.3756C47.6188 33.1196 46.9837 31.9444 45.9421 31.2382C45.5892 29.9279 44.4111 29.0076 43.028 29.0076H36.777C33.384 29.0076 30.6235 31.7659 30.6235 35.1564V38.9223C30.1456 39.3342 29.8421 39.9431 29.8421 40.6219C29.8421 41.6296 30.5101 42.4844 31.4267 42.7674C31.5995 45.0616 32.7827 47.0774 34.5304 48.3747V50.2636L28.8746 51.959C27.584 52.3459 26.7168 53.5105 26.7168 54.857V62.4836C26.7168 62.861 27.023 63.167 27.4007 63.167H27.4982V71.0722C27.4982 71.4496 27.8044 71.7555 28.1821 71.7555C28.5598 71.7555 28.866 71.4496 28.866 71.0722V63.167H31.405V71.0722C31.405 71.4496 31.7112 71.7555 32.0889 71.7555C32.4666 71.7555 32.7728 71.4496 32.7728 71.0722V59.2889C32.7728 58.6896 32.5969 58.1092 32.2643 57.6106L31.0953 55.8584C30.8857 55.5443 30.4611 55.4596 30.1469 55.6688C29.8326 55.8781 29.7477 56.3024 29.9573 56.6165L31.1263 58.3688C31.3087 58.6421 31.4051 58.9603 31.4051 59.2889V61.8002H28.1821H28.0846V54.857C28.0846 54.1187 28.56 53.4803 29.2678 53.268L31.6156 52.5643C32.4332 55.985 35.5382 58.4823 39.1213 58.4823C40.4086 58.4823 41.6588 58.1651 42.7782 57.5616C43.1874 58.1193 43.8473 58.4823 44.5908 58.4823H44.6883V58.5797C44.6883 60.8706 45.9496 62.8716 47.8138 63.9293V65.044C47.8138 65.0859 47.787 65.1231 47.7472 65.1364L45.196 65.9861C43.9576 66.3986 43.1256 67.5521 43.1256 68.8566V71.0722C43.1256 71.4496 43.4318 71.7555 43.8095 71.7555C44.1872 71.7555 44.4934 71.4496 44.4934 71.0722V68.8566C44.4934 68.1414 44.9496 67.5089 45.6285 67.2828L46.3787 67.0329C47.3712 68.5119 49.0404 69.4133 50.8417 69.4133C52.645 69.4133 54.3127 68.5124 55.305 67.033L56.055 67.2828C56.7339 67.509 57.1901 68.1414 57.1901 68.8566V71.0722C57.1901 71.4496 57.4963 71.7555 57.874 71.7555C58.2517 71.7555 58.5579 71.4496 58.5579 71.0722V68.8566C58.5579 67.5521 57.7259 66.3986 56.4875 65.9862L53.9363 65.1365C53.8965 65.1232 53.8697 65.0861 53.8697 65.0441V63.9294C55.2655 63.1374 56.322 61.8166 56.7651 60.2409C58.0575 61.5922 59.8625 62.3864 61.7808 62.3864C64.8093 62.3864 67.4665 60.4302 68.3819 57.582L70.9924 58.6253C71.6265 58.8787 72.0361 59.4834 72.0361 60.1656V63.3619H71.9386H69.497V62.4837C69.497 62.1063 69.1908 61.8003 68.8131 61.8003C68.4354 61.8003 68.1292 62.1063 68.1292 62.4837V71.0723C68.1292 71.4497 68.4354 71.7556 68.8131 71.7556C69.1908 71.7556 69.497 71.4497 69.497 71.0723V64.7286H71.2547V71.0723C71.2547 71.4497 71.5609 71.7556 71.9386 71.7556C72.3163 71.7556 72.6225 71.4497 72.6225 71.0723V64.7286H72.72C72.9013 64.7286 73.0752 64.6566 73.2035 64.5285C73.3318 64.4003 73.4039 64.2266 73.4039 64.0452V60.1656C73.4041 58.9211 72.657 57.8184 71.5007 57.3563ZM53.8699 41.4026C53.8699 37.0437 57.4188 33.4974 61.7811 33.4974C66.1433 33.4974 69.6922 37.0437 69.6922 41.4026C69.6922 45.9916 70.2453 50.6304 70.425 52.0158C69.8121 52.4165 68.243 53.2988 65.5905 53.8787V52.7912C65.9538 52.5855 66.3016 52.3507 66.6285 52.0866C67.9743 50.9997 68.9253 49.4774 69.306 47.8003C69.433 47.2415 69.4974 46.6652 69.4974 46.0874C69.4974 42.2249 66.7019 41.6703 63.9984 41.134L63.9984 41.134C62.2781 40.7928 60.4994 40.4399 59.0829 39.3076C58.8776 39.1435 58.5964 39.1115 58.3594 39.2253C58.1224 39.3391 57.9718 39.5785 57.9718 39.8413C57.9718 39.8594 57.942 41.6575 55.3643 42.3014C54.9978 42.393 54.7751 42.764 54.8667 43.1302C54.9583 43.4964 55.3297 43.7188 55.696 43.6274C57.8535 43.0885 58.7336 41.8791 59.0926 40.9705C60.5754 41.8485 62.2364 42.178 63.7314 42.4746L63.732 42.4747C66.6216 43.0479 68.1296 43.469 68.1296 46.0875C68.1296 46.5637 68.0766 47.0382 67.9722 47.498C67.6589 48.8769 66.8765 50.1291 65.7687 51.0238C64.6288 51.9445 63.2499 52.431 61.7811 52.431C60.4421 52.431 59.1678 52.0207 58.0863 51.2452C57.6901 50.1646 57.0537 49.176 56.214 48.3614V45.3067C56.214 45.0698 56.0912 44.8499 55.8896 44.7254C55.688 44.6009 55.4363 44.5895 55.2243 44.6955L53.7477 45.4332C53.8286 44.01 53.8699 42.6569 53.8699 41.4026ZM54.8462 46.4122V48.8854L52.371 47.6489L54.8462 46.4122ZM46.8375 46.4122L49.3126 47.6489L46.8375 48.8854V46.4122ZM43.1256 53.895V54.544C42.6359 54.9665 42.3442 55.5849 42.3442 56.2373C41.3701 56.8123 40.2636 57.1155 39.1212 57.1155C36.1464 57.1155 33.5726 55.0237 32.9288 52.1706L34.6184 51.6641C35.0352 53.7678 36.8955 55.3592 39.1213 55.3592C40.8888 55.3592 42.4251 54.3553 43.192 52.8888C43.1481 53.2207 43.1256 53.5567 43.1256 53.895ZM35.8983 50.7708V49.1878C36.8797 49.6407 37.9714 49.8937 39.1213 49.8937C40.2712 49.8937 41.3629 49.6406 42.3443 49.1879V50.7718C42.3443 52.5476 40.8985 53.9923 39.1213 53.9923C37.3471 53.9923 35.9034 52.5523 35.8985 50.7806L35.8983 50.7708ZM39.1213 48.527C35.6207 48.527 32.7728 45.6813 32.7728 42.1834C32.7728 41.806 32.4666 41.5 32.0889 41.5C31.6044 41.5 31.2101 41.1061 31.2101 40.6219C31.2101 40.1377 31.6043 39.7437 32.0889 39.7437H33.6517C33.946 39.7437 34.2074 39.5555 34.3005 39.2764L34.9282 37.3947C36.4998 37.3592 41.3718 37.1385 44.1153 35.7677C44.4532 35.5989 44.5901 35.1885 44.4211 34.8509C44.2523 34.5133 43.8416 34.3764 43.5036 34.5453C40.56 36.0159 34.4938 36.0347 34.4329 36.0347C34.1385 36.0348 33.8772 36.2229 33.7842 36.502L33.1587 38.377H32.0889C32.0563 38.377 32.0238 38.3781 31.9915 38.3795V35.1564C31.9915 32.5196 34.1384 30.3743 36.7772 30.3743H43.0282C43.8449 30.3743 44.5309 30.9625 44.6598 31.7727C44.6925 31.9786 44.8175 32.1583 44.9993 32.2607C45.7714 32.6959 46.2512 33.5062 46.2512 34.3755V38.3793C46.2188 38.3778 46.1864 38.3768 46.1537 38.3768H45.3723C44.9946 38.3768 44.6884 38.6828 44.6884 39.0602C44.6884 39.4376 44.9946 39.7436 45.3723 39.7436H46.1537C46.6382 39.7436 47.0325 40.1375 47.0325 40.6218C47.0325 41.1061 46.6383 41.4999 46.1537 41.4999C45.776 41.4999 45.4698 41.8059 45.4698 42.1833C45.4698 45.6812 42.622 48.527 39.1213 48.527ZM43.712 50.772V48.3747C44.3923 47.8696 44.987 47.2562 45.4697 46.5589V48.3613C44.7038 49.1043 44.1068 49.9918 43.7072 50.9621C43.7098 50.8989 43.712 50.8357 43.712 50.772ZM53.9403 66.5783C53.1873 67.4974 52.0563 68.0464 50.8418 68.0464C49.6289 68.0464 48.4971 67.497 47.7439 66.5782L48.1798 66.433C48.779 66.2335 49.1817 65.6752 49.1817 65.0441V64.4994C49.7102 64.6476 50.2666 64.7286 50.8419 64.7286C51.4172 64.7286 51.9736 64.6476 52.5022 64.4994V65.0441C52.5021 65.6751 52.9047 66.2334 53.504 66.433L53.9403 66.5783ZM56.3116 57.1155C55.9339 57.1155 55.6277 57.4215 55.6277 57.7989V58.4784V58.4961V58.5797C55.6276 61.2165 53.4807 63.3618 50.8418 63.3618C48.203 63.3618 46.0562 61.2165 46.0562 58.5797V57.7989C46.0562 57.4215 45.75 57.1155 45.3723 57.1155H44.5909C44.1064 57.1155 43.7121 56.7216 43.7121 56.2374C43.7121 55.9257 43.8771 55.6437 44.1535 55.483C44.2152 55.4471 44.269 55.4016 44.3155 55.3502C46.0061 55.3013 51.4863 54.9834 55.088 52.9268C55.4159 52.7396 55.5299 52.3222 55.3425 51.9944C55.1551 51.6667 54.7372 51.5529 54.4094 51.7401C51.2542 53.5417 46.2962 53.9024 44.4935 53.9745V53.895C44.4935 52.624 44.8786 51.3931 45.5766 50.3554C45.6312 50.4419 45.7042 50.517 45.7941 50.5724C45.904 50.6402 46.0287 50.6745 46.1537 50.6745C46.2582 50.6745 46.363 50.6505 46.4595 50.6023L50.8419 48.4128L55.2243 50.6023C55.3209 50.6505 55.4257 50.6745 55.5302 50.6745C55.6553 50.6745 55.7799 50.6402 55.8897 50.5724C55.9795 50.517 56.0526 50.4418 56.1072 50.3554C56.8051 51.3931 57.1903 52.624 57.1903 53.895V54.8924C57.1903 55.1357 57.3197 55.3606 57.5303 55.483C57.8067 55.6438 57.9718 55.9257 57.9718 56.2374C57.9718 56.7215 57.5775 57.1155 57.0929 57.1155H56.3116ZM61.7811 61.0194C59.8877 61.0194 58.1311 60.0562 57.1085 58.4819C58.3401 58.4734 59.3395 57.47 59.3395 56.2374C59.3395 55.585 59.0478 54.9666 58.5581 54.5441V53.8951C58.5581 53.62 58.5432 53.3465 58.5142 53.0755C59.5282 53.5506 60.6354 53.7976 61.7811 53.7976C62.615 53.7976 63.4397 53.6596 64.2227 53.3986V54.3993C64.2227 55.3226 64.777 56.1409 65.6349 56.4837L67.1096 57.0732C66.4029 59.4083 64.2445 61.0194 61.7811 61.0194ZM35.3104 40.6218C35.3104 40.2444 35.6166 39.9385 35.9943 39.9385C36.372 39.9385 36.6782 40.2444 36.6782 40.6218V41.4026C36.6782 41.78 36.372 42.086 35.9943 42.086C35.6166 42.086 35.3104 41.78 35.3104 41.4026V40.6218ZM40.1511 44.0953C40.3891 43.8021 40.8197 43.7573 41.113 43.995C41.4064 44.2327 41.4513 44.663 41.2134 44.9562C40.6802 45.6131 39.917 45.9899 39.1195 45.9899C38.322 45.9899 37.5588 45.6131 37.0256 44.9562C36.7877 44.663 36.8327 44.2327 37.126 43.995C37.4193 43.7573 37.85 43.8022 38.0879 44.0953C38.3642 44.4356 38.7305 44.6231 39.1195 44.6231C39.5085 44.6231 39.8748 44.4357 40.1511 44.0953ZM42.2462 39.9385C41.8685 39.9385 41.5623 40.2444 41.5623 40.6218V41.4026C41.5623 41.78 41.8684 42.086 42.2462 42.086C42.6239 42.086 42.9301 41.78 42.9301 41.4026V40.6218C42.9301 40.2444 42.6239 39.9385 42.2462 39.9385ZM62.8131 47.9992C63.051 47.7059 63.4816 47.6611 63.775 47.8988C64.0683 48.1366 64.1132 48.5669 63.8753 48.86C63.3421 49.517 62.579 49.8937 61.7815 49.8937C60.984 49.8937 60.2207 49.5171 59.6877 48.86C59.4497 48.5669 59.4946 48.1366 59.788 47.8988C60.0813 47.6611 60.5121 47.706 60.7499 47.9992C61.0262 48.3395 61.3925 48.527 61.7815 48.527C62.1704 48.527 62.5368 48.3395 62.8131 47.9992ZM58.6544 43.8424C58.2767 43.8424 57.9705 44.1484 57.9705 44.5258V45.3065C57.9705 45.684 58.2767 45.9899 58.6544 45.9899C59.0321 45.9899 59.3383 45.684 59.3383 45.3065V44.5258C59.3383 44.1484 59.0321 43.8424 58.6544 43.8424ZM64.2229 44.5258C64.2229 44.1484 64.5291 43.8424 64.9068 43.8424C65.2845 43.8424 65.5907 44.1484 65.5907 44.5258V45.3065C65.5907 45.684 65.2845 45.9899 64.9068 45.9899C64.529 45.9899 64.2229 45.684 64.2229 45.3065V44.5258ZM51.8756 59.7108C52.1135 59.4176 52.5442 59.3727 52.8375 59.6105C53.1308 59.8482 53.1757 60.2786 52.9379 60.5717C52.4047 61.2286 51.6415 61.6054 50.844 61.6054C50.0465 61.6054 49.2834 61.2285 48.7501 60.5717C48.5122 60.2785 48.5572 59.8482 48.8505 59.6105C49.1438 59.3727 49.5745 59.4177 49.8124 59.7108C50.0887 60.0512 50.4551 60.2386 50.844 60.2386C51.2329 60.2386 51.5992 60.0512 51.8756 59.7108ZM48.5115 57.7046C48.8892 57.7046 49.1954 57.3986 49.1954 57.0212C49.1954 56.6438 48.8892 56.3378 48.5115 56.3378C48.1338 56.3378 47.8276 56.6438 47.8276 57.0212C47.8276 57.3986 48.1338 57.7046 48.5115 57.7046ZM53.8451 57.0212C53.8451 57.3986 53.5389 57.7046 53.1612 57.7046C52.7835 57.7046 52.4773 57.3986 52.4773 57.0212C52.4773 56.6438 52.7835 56.3378 53.1612 56.3378C53.5389 56.3378 53.8451 56.6438 53.8451 57.0212Z" fill="white"/>
<circle cx="50" cy="50" r="49" stroke="url(#paint0_linear)" stroke-width="2"/>
<defs>
<linearGradient id="paint0_linear" x1="87.0229" y1="77.8626" x2="20.9924" y2="11.8321" gradientUnits="userSpaceOnUse">
<stop stop-color="#CBAB97"/>
<stop offset="1" stop-color="#CBAB97" stop-opacity="0"/>
</linearGradient>
</defs>
</svg>
