<svg width="18" height="22" viewBox="0 0 18 22" fill="none" xmlns="http://www.w3.org/2000/svg">
<path d="M12.4375 1.375H10.9442C10.661 0.57475 9.8965 0 9 0C8.1035 0 7.339 0.57475 7.05438 1.375H5.5625C5.183 1.375 4.875 1.683 4.875 2.0625V4.8125C4.875 5.192 5.183 5.5 5.5625 5.5H12.4375C12.817 5.5 13.125 5.192 13.125 4.8125V2.0625C13.125 1.683 12.817 1.375 12.4375 1.375Z" fill="#4D4DA7"/>
<path d="M15.875 2.75H14.5V4.8125C14.5 5.94963 13.5746 6.875 12.4375 6.875H5.5625C4.42537 6.875 3.5 5.94963 3.5 4.8125V2.75H2.125C1.36738 2.75 0.75 3.36738 0.75 4.125V20.625C0.75 21.3964 1.35362 22 2.125 22H15.875C16.6464 22 17.25 21.3964 17.25 20.625V4.125C17.25 3.35362 16.6464 2.75 15.875 2.75ZM8.79925 14.9242L6.04925 17.6742C5.9145 17.8076 5.7385 17.875 5.5625 17.875C5.3865 17.875 5.2105 17.8076 5.07575 17.6742L3.70075 16.2992C3.43262 16.0311 3.43262 15.5953 3.70075 15.3271C3.96887 15.059 4.40475 15.059 4.67288 15.3271L5.5625 16.2154L7.82575 13.9521C8.09387 13.684 8.52975 13.684 8.79788 13.9521C9.066 14.2203 9.06738 14.6547 8.79925 14.9242ZM8.79925 9.42425L6.04925 12.1742C5.9145 12.3076 5.7385 12.375 5.5625 12.375C5.3865 12.375 5.2105 12.3076 5.07575 12.1742L3.70075 10.7992C3.43262 10.5311 3.43262 10.0952 3.70075 9.82712C3.96887 9.559 4.40475 9.559 4.67288 9.82712L5.5625 10.7154L7.82575 8.45212C8.09387 8.184 8.52975 8.184 8.79788 8.45212C9.066 8.72025 9.06738 9.15475 8.79925 9.42425ZM13.8125 16.5H11.0625C10.683 16.5 10.375 16.192 10.375 15.8125C10.375 15.433 10.683 15.125 11.0625 15.125H13.8125C14.192 15.125 14.5 15.433 14.5 15.8125C14.5 16.192 14.192 16.5 13.8125 16.5ZM13.8125 11H11.0625C10.683 11 10.375 10.692 10.375 10.3125C10.375 9.933 10.683 9.625 11.0625 9.625H13.8125C14.192 9.625 14.5 9.933 14.5 10.3125C14.5 10.692 14.192 11 13.8125 11Z" fill="#4D4DA7"/>
</svg>
