<svg width="100" height="100" viewBox="0 0 100 100" fill="none" xmlns="http://www.w3.org/2000/svg">
<circle cx="49.2595" cy="49.2595" r="36.2595" fill="#CBAB97"/>
<path d="M69.5202 53.9835L65.9007 51.4287V47.5403C65.9007 47.3542 65.8268 47.1757 65.6952 47.044C65.5635 46.9124 65.385 46.8385 65.1989 46.8385H62.3914C62.2053 46.8385 62.0267 46.9124 61.8951 47.044C61.7635 47.1757 61.6895 47.3542 61.6895 47.5403V48.4528L58.5845 46.2615C58.4661 46.178 58.3248 46.1332 58.1799 46.1332C58.035 46.1332 57.8936 46.178 57.7752 46.2615L48.6643 52.6962L46.2485 51.9375V49.4929C47.5178 48.8513 48.5838 47.8695 49.3274 46.6571C50.071 45.4447 50.4631 44.0495 50.4597 42.6273V41.9254C50.9288 41.927 51.3849 41.7714 51.7552 41.4834C52.1255 41.1953 52.3886 40.7916 52.5025 40.3365C52.6164 39.8815 52.5746 39.4014 52.3837 38.9729C52.1928 38.5444 51.8638 38.1922 51.4493 37.9725C51.4888 37.9135 51.5248 37.8524 51.5574 37.7893L51.6276 37.6448C51.7613 37.3796 51.837 37.089 51.8497 36.7924C51.8624 36.4957 51.8119 36.1997 51.7014 35.9241C51.5909 35.6484 51.4231 35.3995 51.209 35.1937C50.9949 34.9879 50.7395 34.8301 50.4597 34.7306V31.1448C50.4576 30.6584 50.2879 30.1875 49.9791 29.8117C49.6704 29.4358 49.2415 29.1778 48.7647 29.0813L43.9731 28.1177C43.1556 27.9608 42.3158 27.9608 41.4983 28.1177L36.7109 29.0813C36.2346 29.1784 35.8064 29.4366 35.4982 29.8124C35.19 30.1882 35.0207 30.6588 35.0187 31.1448V34.7306C34.7387 34.8298 34.4831 34.9874 34.2688 35.193C34.0545 35.3986 33.8864 35.6475 33.7757 35.9231C33.665 36.1987 33.6143 36.4947 33.6269 36.7914C33.6395 37.0882 33.7151 37.3788 33.8487 37.6441L33.9189 37.7844C33.9525 37.8474 33.9895 37.9086 34.0298 37.9676C33.6127 38.1859 33.2811 38.5381 33.0883 38.9676C32.8956 39.3971 32.8528 39.8789 32.9669 40.3356C33.0811 40.7924 33.3454 41.1974 33.7175 41.4858C34.0897 41.7741 34.5479 41.929 35.0187 41.9254V42.6273C35.0191 44.0493 35.4126 45.4435 36.1558 46.6559C36.899 47.8682 37.9629 48.8515 39.2299 49.4971V51.9375L33.4205 53.7546C31.8467 54.2392 30.4702 55.2168 29.4942 56.5432C28.5182 57.8696 27.9944 59.4746 28 61.1214V69.2981C28 69.4843 28.074 69.6628 28.2056 69.7944C28.3372 69.9261 28.5158 70 28.7019 70H56.7765C56.9626 70 57.1412 69.9261 57.2728 69.7944C57.4044 69.6628 57.4784 69.4843 57.4784 69.2981V67.1925H64.497C64.8693 67.1925 65.2263 67.0447 65.4896 66.7814C65.7528 66.5182 65.9007 66.1611 65.9007 65.7888V56.1782L67.2343 57.1559C67.4425 57.3092 67.679 57.4197 67.9302 57.481C68.1814 57.5423 68.4423 57.5532 68.6977 57.513C68.9532 57.4728 69.1981 57.3824 69.4183 57.2469C69.6386 57.1114 69.8298 56.9336 69.9808 56.7237C70.1319 56.5139 70.2398 56.2761 70.2984 56.0243C70.357 55.7724 70.365 55.5115 70.322 55.2565C70.2791 55.0015 70.186 54.7576 70.0481 54.5388C69.9102 54.3201 69.7303 54.1308 69.5188 53.9821L69.5202 53.9835ZM63.0933 48.2422H64.497V50.4376L63.0933 49.4473V48.2422ZM46.2906 53.4227L45.7488 56.2477L43.8713 55.1247L45.7425 53.2535L46.2906 53.4227ZM40.6336 50.046C42.0086 50.4479 43.4698 50.4479 44.8448 50.046V52.1621L42.7392 54.2677L40.6336 52.1621V50.046ZM35.9311 37.5374C35.7818 37.5643 35.6278 37.5421 35.4922 37.4742C35.3565 37.4062 35.2465 37.2962 35.1787 37.1605L35.1085 37.0201C35.059 36.9212 35.0336 36.812 35.0343 36.7014C35.035 36.5908 35.0618 36.482 35.1126 36.3837C35.1634 36.2855 35.2366 36.2006 35.3264 36.136C35.4162 36.0715 35.52 36.0291 35.6293 36.0122L41.7833 35.0661C42.4198 34.9679 43.0677 34.9679 43.7043 35.0661L49.8575 36.0122C49.9667 36.0289 50.0705 36.0712 50.1603 36.1356C50.2501 36.2 50.3234 36.2847 50.3743 36.3828C50.4252 36.4809 50.4522 36.5896 50.4532 36.7001C50.4541 36.8106 50.4289 36.9198 50.3797 37.0187L50.3095 37.1633C50.2411 37.2987 50.1309 37.4084 49.9953 37.4763C49.8597 37.5442 49.7058 37.5666 49.5564 37.5402L43.8692 36.5035C43.122 36.3674 42.3564 36.3674 41.6092 36.5035L35.9311 37.5374ZM50.4597 40.5217V39.118C50.6459 39.118 50.8244 39.1919 50.956 39.3235C51.0876 39.4552 51.1616 39.6337 51.1616 39.8198C51.1616 40.006 51.0876 40.1845 50.956 40.3161C50.8244 40.4478 50.6459 40.5217 50.4597 40.5217ZM49.056 31.1448V34.4667L47.248 34.186L48.0137 30.3587L48.4882 30.4542C48.6479 30.4862 48.7917 30.5724 48.8952 30.6983C48.9986 30.8241 49.0554 30.9819 49.056 31.1448ZM41.7692 29.4968C42.4077 29.3743 43.0637 29.3743 43.7022 29.4968L46.6374 30.0864L45.8597 33.9768L43.9134 33.6771C43.1355 33.5564 42.3436 33.5564 41.5657 33.6771L39.6187 33.9768L38.841 30.085L41.7692 29.4968ZM36.9874 30.457L37.4647 30.3615L38.2304 34.1888L36.4224 34.4695V31.1448C36.4235 30.9827 36.4802 30.826 36.583 30.7008C36.6859 30.5755 36.8287 30.4895 36.9874 30.457ZM34.3168 39.8198C34.3168 39.6337 34.3908 39.4552 34.5224 39.3235C34.654 39.1919 34.8325 39.118 35.0187 39.118V40.5217C34.8325 40.5217 34.654 40.4478 34.5224 40.3161C34.3908 40.1845 34.3168 40.006 34.3168 39.8198ZM36.4224 42.6273V38.8737L41.8605 37.8855C42.4406 37.7799 43.035 37.7799 43.6151 37.8855L49.056 38.8737V42.6273C49.056 44.3026 48.3905 45.9093 47.2058 47.0939C46.0212 48.2786 44.4145 48.9441 42.7392 48.9441C41.0639 48.9441 39.4572 48.2786 38.2726 47.0939C37.0879 45.9093 36.4224 44.3026 36.4224 42.6273ZM39.7359 53.25L41.6071 55.1205L39.7296 56.2435L39.1878 53.4171L39.7359 53.25ZM29.4038 61.1214C29.3992 59.7742 29.8278 58.4611 30.6263 57.376C31.4249 56.291 32.5512 55.4914 33.8389 55.0952L37.8395 53.8431L38.5413 57.4984C38.5625 57.6097 38.6102 57.7142 38.6805 57.803C38.7508 57.8918 38.8416 57.9623 38.945 58.0084C39.0484 58.0545 39.1615 58.0749 39.2745 58.0679C39.3876 58.0609 39.4972 58.0266 39.5941 57.9679L42.7392 56.0792L45.8871 57.9679C45.984 58.0266 46.0936 58.0609 46.2067 58.0679C46.3197 58.0749 46.4328 58.0545 46.5362 58.0084C46.6397 57.9623 46.7304 57.8918 46.8007 57.803C46.871 57.7142 46.9187 57.6097 46.9399 57.4984L46.9848 57.2626C47.3123 57.4585 47.6905 57.5529 48.0716 57.5339C48.4528 57.5149 48.8198 57.3834 49.1262 57.1559L50.4597 56.1782V65.7888C50.4604 66.0341 50.5257 66.2749 50.6489 66.4871C50.7721 66.6992 50.9489 66.8752 51.1616 66.9974V68.5963H34.3168V60.8758H32.9131V68.5963H29.4038V61.1214ZM56.0746 68.5963H52.5653V67.1925H56.0746V68.5963ZM54.6709 65.7888V61.5776H57.4784V65.7888H54.6709ZM64.497 65.7888H58.8821V60.8758C58.8821 60.6896 58.8081 60.5111 58.6765 60.3795C58.5449 60.2478 58.3664 60.1739 58.1802 60.1739H53.969C53.7829 60.1739 53.6044 60.2478 53.4727 60.3795C53.3411 60.5111 53.2672 60.6896 53.2672 60.8758V65.7888H51.8634V55.1486L58.1802 50.5162L64.497 55.1486V65.7888ZM68.8486 55.8869C68.8073 55.949 68.754 56.002 68.6917 56.0429C68.6294 56.0837 68.5595 56.1116 68.4862 56.1247C68.4129 56.1378 68.3377 56.1359 68.2651 56.1192C68.1925 56.1025 68.124 56.0712 68.0639 56.0273L58.5929 49.0788C58.4724 48.9903 58.3269 48.9426 58.1774 48.9426C58.0279 48.9426 57.8824 48.9903 57.7619 49.0788L48.2916 56.0273C48.2314 56.0712 48.1629 56.1025 48.0903 56.1192C48.0176 56.136 47.9424 56.1379 47.869 56.1247C47.7956 56.1116 47.7256 56.0838 47.6633 56.0429C47.601 56.002 47.5475 55.949 47.5063 55.8869C47.426 55.7675 47.3957 55.6214 47.4219 55.4799C47.4482 55.3385 47.5288 55.2129 47.6466 55.1303L58.1746 47.6976L68.7082 55.1296C68.826 55.2124 68.9067 55.338 68.933 55.4796C68.9592 55.6212 68.9289 55.7674 68.8486 55.8869Z" fill="white"/>
<path d="M59.584 60.8757V63.6832C59.584 63.8693 59.6579 64.0478 59.7896 64.1794C59.9212 64.3111 60.0997 64.385 60.2858 64.385H63.0933C63.2795 64.385 63.458 64.3111 63.5896 64.1794C63.7212 64.0478 63.7952 63.8693 63.7952 63.6832V60.8757C63.7952 60.6895 63.7212 60.511 63.5896 60.3794C63.458 60.2478 63.2795 60.1738 63.0933 60.1738H60.2858C60.0997 60.1738 59.9212 60.2478 59.7896 60.3794C59.6579 60.511 59.584 60.6895 59.584 60.8757ZM60.9877 61.5776H62.3914V62.9813H60.9877V61.5776Z" fill="white"/>
<path d="M55.373 55.9627C55.373 56.518 55.5377 57.0608 55.8462 57.5225C56.1547 57.9842 56.5931 58.344 57.1061 58.5565C57.6191 58.769 58.1836 58.8246 58.7282 58.7163C59.2728 58.6079 59.7731 58.3405 60.1657 57.9479C60.5583 57.5553 60.8257 57.055 60.934 56.5104C61.0424 55.9659 60.9868 55.4014 60.7743 54.8884C60.5618 54.3754 60.2019 53.9369 59.7403 53.6284C59.2786 53.3199 58.7358 53.1553 58.1805 53.1553C57.4359 53.1553 56.7218 53.4511 56.1953 53.9776C55.6688 54.5041 55.373 55.2182 55.373 55.9627ZM59.5842 55.9627C59.5842 56.2404 59.5019 56.5118 59.3477 56.7426C59.1934 56.9735 58.9742 57.1534 58.7177 57.2596C58.4612 57.3659 58.179 57.3937 57.9067 57.3395C57.6344 57.2853 57.3842 57.1516 57.1879 56.9553C56.9916 56.759 56.8579 56.5089 56.8038 56.2366C56.7496 55.9643 56.7774 55.6821 56.8836 55.4256C56.9899 55.1691 57.1698 54.9498 57.4006 54.7956C57.6315 54.6413 57.9029 54.559 58.1805 54.559C58.5528 54.559 58.9099 54.7069 59.1731 54.9701C59.4364 55.2334 59.5842 55.5904 59.5842 55.9627Z" fill="white"/>
<path d="M39.932 39.8198H38.5283V41.2236H39.932V39.8198Z" fill="white"/>
<path d="M46.9506 39.8198H45.5469V41.2236H46.9506V39.8198Z" fill="white"/>
<path d="M42.7391 46.8385C43.4837 46.8385 44.1978 46.5427 44.7243 46.0162C45.2508 45.4897 45.5466 44.7756 45.5466 44.031H44.1428C44.1428 44.4033 43.9949 44.7603 43.7317 45.0236C43.4684 45.2868 43.1114 45.4347 42.7391 45.4347C42.3668 45.4347 42.0098 45.2868 41.7465 45.0236C41.4833 44.7603 41.3354 44.4033 41.3354 44.031H39.9316C39.9316 44.7756 40.2274 45.4897 40.7539 46.0162C41.2804 46.5427 41.9945 46.8385 42.7391 46.8385Z" fill="white"/>
<circle cx="50" cy="50" r="49" stroke="url(#paint0_linear)" stroke-width="2"/>
<defs>
<linearGradient id="paint0_linear" x1="87.0229" y1="77.8626" x2="20.9924" y2="11.8321" gradientUnits="userSpaceOnUse">
<stop stop-color="#CBAB97"/>
<stop offset="1" stop-color="#CBAB97" stop-opacity="0"/>
</linearGradient>
</defs>
</svg>
